<svg width="18" height="13" viewBox="0 0 18 13" fill="none" xmlns="http://www.w3.org/2000/svg">
<path d="M16.6823 5.57876C16.8868 5.83142 17 6.15966 17 6.50001C17 6.84036 16.8868 7.16861 16.6823 7.42126C15.3876 8.97502 12.4404 12 9.00001 12C5.55962 12 2.61247 8.97502 1.3177 7.42126C1.1132 7.16861 1 6.84036 1 6.50001C1 6.15966 1.1132 5.83142 1.3177 5.57876C2.61247 4.025 5.55962 1 9.00001 1C12.4404 1 15.3876 4.025 16.6823 5.57876Z" stroke="#9D9D9D" stroke-width="1.5" stroke-linecap="round" stroke-linejoin="round"/>
<path d="M9.00004 8.9445C10.3621 8.9445 11.4663 7.8501 11.4663 6.50008C11.4663 5.15007 10.3621 4.05566 9.00004 4.05566C7.63798 4.05566 6.53381 5.15007 6.53381 6.50008C6.53381 7.8501 7.63798 8.9445 9.00004 8.9445Z" stroke="#9D9D9D" stroke-width="1.5" stroke-linecap="round" stroke-linejoin="round"/>
</svg>
