<svg width="345" height="204" viewBox="0 0 345 204" fill="none" xmlns="http://www.w3.org/2000/svg">
<g filter="url(#filter0_d_49_411)">
<rect x="15" y="10" width="315" height="174" rx="15" fill="url(#paint0_linear_49_411)"/>
</g>
<mask id="mask0_49_411" style="mask-type:alpha" maskUnits="userSpaceOnUse" x="15" y="10" width="315" height="174">
<rect x="15" y="10" width="315" height="174" rx="15" fill="url(#paint1_linear_49_411)"/>
</mask>
<g mask="url(#mask0_49_411)">
<rect width="94.3548" height="205.55" transform="matrix(0.863536 -0.504287 0.603154 0.797625 -71.0531 74.5664)" fill="white" fill-opacity="0.05"/>
</g>
<mask id="mask1_49_411" style="mask-type:alpha" maskUnits="userSpaceOnUse" x="15" y="10" width="315" height="174">
<rect x="15" y="10" width="315" height="174" rx="15" fill="url(#paint2_linear_49_411)"/>
</mask>
<g mask="url(#mask1_49_411)">
<rect width="89.4073" height="275.84" transform="matrix(0.863496 -0.504356 0.603224 0.797572 -1.2006 12.384)" fill="white" fill-opacity="0.2"/>
</g>
<mask id="mask2_49_411" style="mask-type:alpha" maskUnits="userSpaceOnUse" x="15" y="10" width="315" height="174">
<rect x="15" y="10" width="315" height="174" rx="15" fill="url(#paint3_linear_49_411)"/>
</mask>
<g mask="url(#mask2_49_411)">
<rect width="105.9" height="355.949" transform="matrix(0.863496 -0.504356 0.603224 0.797572 73.5002 -35.4523)" fill="white" fill-opacity="0.3"/>
</g>
<mask id="mask3_49_411" style="mask-type:alpha" maskUnits="userSpaceOnUse" x="15" y="10" width="315" height="174">
<rect x="15" y="10" width="315" height="174" rx="15" fill="url(#paint4_linear_49_411)"/>
</mask>
<g mask="url(#mask3_49_411)">
<rect width="81.595" height="321.262" transform="matrix(0.863496 -0.504356 0.603224 0.797572 208.5 -31.1017)" fill="white" fill-opacity="0.35"/>
</g>
<defs>
<filter id="filter0_d_49_411" x="0" y="0" width="345" height="204" filterUnits="userSpaceOnUse" color-interpolation-filters="sRGB">
<feFlood flood-opacity="0" result="BackgroundImageFix"/>
<feColorMatrix in="SourceAlpha" type="matrix" values="0 0 0 0 0 0 0 0 0 0 0 0 0 0 0 0 0 0 127 0" result="hardAlpha"/>
<feOffset dy="5"/>
<feGaussianBlur stdDeviation="7.5"/>
<feComposite in2="hardAlpha" operator="out"/>
<feColorMatrix type="matrix" values="0 0 0 0 0.47451 0 0 0 0 0.705882 0 0 0 0 0.717647 0 0 0 0.3 0"/>
<feBlend mode="normal" in2="BackgroundImageFix" result="effect1_dropShadow_49_411"/>
<feBlend mode="normal" in="SourceGraphic" in2="effect1_dropShadow_49_411" result="shape"/>
</filter>
<linearGradient id="paint0_linear_49_411" x1="15" y1="184" x2="305.721" y2="-23.9441" gradientUnits="userSpaceOnUse">
<stop stop-color="#B0D4D5"/>
<stop offset="0.492708" stop-color="#C1DEDE"/>
<stop offset="1" stop-color="#EBF2F1"/>
</linearGradient>
<linearGradient id="paint1_linear_49_411" x1="15" y1="184" x2="305.721" y2="-23.9441" gradientUnits="userSpaceOnUse">
<stop stop-color="#280537"/>
<stop offset="0.185417" stop-color="#56034C"/>
<stop offset="0.419792" stop-color="#890058"/>
<stop offset="0.669792" stop-color="#BC005B"/>
<stop offset="1" stop-color="#EB1254"/>
</linearGradient>
<linearGradient id="paint2_linear_49_411" x1="15" y1="184" x2="305.721" y2="-23.9441" gradientUnits="userSpaceOnUse">
<stop stop-color="#FF5858"/>
<stop offset="0.492708" stop-color="#FF6B6B"/>
<stop offset="1" stop-color="#FF7D7D"/>
</linearGradient>
<linearGradient id="paint3_linear_49_411" x1="15" y1="184" x2="305.721" y2="-23.9441" gradientUnits="userSpaceOnUse">
<stop stop-color="#FF5858"/>
<stop offset="0.492708" stop-color="#FF6B6B"/>
<stop offset="1" stop-color="#FF7D7D"/>
</linearGradient>
<linearGradient id="paint4_linear_49_411" x1="15" y1="184" x2="305.721" y2="-23.9441" gradientUnits="userSpaceOnUse">
<stop stop-color="#FF5858"/>
<stop offset="0.492708" stop-color="#FF6B6B"/>
<stop offset="1" stop-color="#FF7D7D"/>
</linearGradient>
</defs>
</svg>
