<svg width="362" height="802" viewBox="0 0 362 802" fill="none" xmlns="http://www.w3.org/2000/svg">
<g clip-path="url(#clip0_344_6325)">
<rect x="1" y="1" width="360" height="800" fill="#F3EEEA"/>
<path d="M1 -62H361V116H1V-62Z" fill="#79B4B7"/>
<rect x="11" y="72" width="340" height="34" rx="16" fill="#79B4B7"/>
<path d="M232.688 86.4929C232.635 86.0223 232.417 85.6577 232.032 85.3991C231.648 85.1373 231.164 85.0064 230.581 85.0064C230.163 85.0064 229.802 85.0727 229.497 85.2053C229.192 85.3345 228.955 85.5135 228.786 85.7422C228.62 85.9676 228.537 86.2244 228.537 86.5128C228.537 86.7547 228.594 86.9635 228.706 87.1392C228.822 87.3149 228.973 87.4624 229.159 87.5817C229.348 87.6977 229.55 87.7955 229.765 87.875C229.981 87.9512 230.188 88.0142 230.387 88.0639L231.381 88.3224C231.706 88.402 232.039 88.5097 232.38 88.6456C232.722 88.7815 233.038 88.9605 233.33 89.1825C233.621 89.4046 233.857 89.6797 234.036 90.0078C234.218 90.3359 234.309 90.7287 234.309 91.1861C234.309 91.7628 234.16 92.2749 233.862 92.7223C233.567 93.1697 233.138 93.5227 232.574 93.7812C232.014 94.0398 231.336 94.169 230.541 94.169C229.778 94.169 229.119 94.0481 228.562 93.8061C228.005 93.5642 227.569 93.2211 227.255 92.777C226.94 92.3295 226.766 91.7992 226.733 91.1861H228.274C228.304 91.554 228.423 91.8606 228.632 92.1058C228.844 92.3478 229.114 92.5284 229.442 92.6477C229.773 92.7637 230.136 92.8217 230.531 92.8217C230.965 92.8217 231.351 92.7538 231.689 92.6179C232.031 92.4787 232.299 92.2865 232.495 92.0412C232.69 91.7926 232.788 91.5026 232.788 91.1712C232.788 90.8696 232.702 90.6226 232.529 90.4304C232.36 90.2382 232.13 90.0791 231.838 89.9531C231.55 89.8272 231.224 89.7161 230.859 89.62L229.656 89.2919C228.84 89.0698 228.194 88.7434 227.717 88.3125C227.243 87.8816 227.006 87.3116 227.006 86.6023C227.006 86.0156 227.165 85.5036 227.483 85.0661C227.801 84.6286 228.232 84.2888 228.776 84.0469C229.319 83.8016 229.933 83.679 230.615 83.679C231.305 83.679 231.913 83.8 232.44 84.0419C232.97 84.2839 233.388 84.617 233.693 85.0412C233.998 85.4621 234.157 85.946 234.17 86.4929H232.688ZM237.512 89.4659V94H236.026V83.8182H237.492V87.6065H237.587C237.766 87.1955 238.039 86.8691 238.407 86.6271C238.775 86.3852 239.256 86.2642 239.849 86.2642C240.372 86.2642 240.83 86.3719 241.221 86.5874C241.615 86.8028 241.92 87.1243 242.136 87.5518C242.354 87.9761 242.464 88.5064 242.464 89.1428V94H240.977V89.3217C240.977 88.7616 240.833 88.3274 240.545 88.0192C240.256 87.7076 239.855 87.5518 239.342 87.5518C238.99 87.5518 238.676 87.6264 238.397 87.7756C238.122 87.9247 237.905 88.1435 237.746 88.4318C237.59 88.7169 237.512 89.0616 237.512 89.4659ZM246.67 94.169C246.186 94.169 245.748 94.0795 245.357 93.9006C244.966 93.7183 244.656 93.4548 244.428 93.1101C244.202 92.7654 244.09 92.3428 244.09 91.8423C244.09 91.4115 244.172 91.0568 244.338 90.7784C244.504 90.5 244.728 90.2796 245.009 90.1172C245.291 89.9548 245.606 89.8321 245.954 89.7493C246.302 89.6664 246.657 89.6035 247.018 89.5604C247.475 89.5073 247.846 89.4643 248.131 89.4311C248.417 89.3946 248.624 89.3366 248.753 89.2571C248.882 89.1776 248.947 89.0483 248.947 88.8693V88.8345C248.947 88.4003 248.824 88.0639 248.579 87.8253C248.337 87.5866 247.976 87.4673 247.495 87.4673C246.995 87.4673 246.6 87.5784 246.312 87.8004C246.027 88.0192 245.83 88.2628 245.72 88.5312L244.323 88.2131C244.489 87.7491 244.731 87.3745 245.049 87.0895C245.371 86.8011 245.74 86.5923 246.158 86.4631C246.575 86.3305 247.015 86.2642 247.475 86.2642C247.78 86.2642 248.103 86.3007 248.445 86.3736C248.789 86.4432 249.111 86.5724 249.409 86.7614C249.711 86.9503 249.958 87.2204 250.15 87.5717C250.342 87.9197 250.438 88.3722 250.438 88.929V94H248.987V92.956H248.927C248.831 93.1482 248.687 93.3371 248.494 93.5227C248.302 93.7083 248.055 93.8625 247.754 93.9851C247.452 94.1077 247.091 94.169 246.67 94.169ZM246.993 92.9759C247.404 92.9759 247.755 92.8946 248.047 92.7322C248.342 92.5698 248.566 92.3577 248.718 92.0959C248.874 91.8307 248.952 91.5473 248.952 91.2457V90.2614C248.899 90.3144 248.796 90.3641 248.644 90.4105C248.494 90.4536 248.324 90.4917 248.131 90.5249C247.939 90.5547 247.752 90.5829 247.57 90.6094C247.387 90.6326 247.235 90.6525 247.112 90.669C246.824 90.7055 246.56 90.7668 246.322 90.853C246.086 90.9392 245.898 91.0634 245.755 91.2259C245.616 91.3849 245.546 91.5971 245.546 91.8622C245.546 92.2301 245.682 92.5085 245.954 92.6974C246.226 92.883 246.572 92.9759 246.993 92.9759ZM252.418 94V86.3636H253.855V87.5767H253.935C254.074 87.1657 254.319 86.8426 254.67 86.6072C255.025 86.3686 255.426 86.2493 255.873 86.2493C255.966 86.2493 256.076 86.2526 256.202 86.2592C256.331 86.2659 256.432 86.2741 256.505 86.2841V87.706C256.445 87.6894 256.339 87.6712 256.187 87.6513C256.034 87.6281 255.882 87.6165 255.729 87.6165C255.378 87.6165 255.065 87.6911 254.79 87.8402C254.518 87.986 254.302 88.1899 254.143 88.4517C253.984 88.7102 253.905 89.0052 253.905 89.3366V94H252.418ZM260.809 94.1541C260.057 94.1541 259.409 93.9934 258.865 93.6719C258.325 93.3471 257.907 92.8913 257.612 92.3047C257.321 91.7147 257.175 91.0237 257.175 90.2315C257.175 89.4493 257.321 88.7599 257.612 88.1634C257.907 87.5668 258.318 87.1011 258.845 86.7663C259.376 86.4316 259.995 86.2642 260.705 86.2642C261.136 86.2642 261.553 86.3355 261.957 86.478C262.362 86.6205 262.725 86.8442 263.046 87.1491C263.368 87.4541 263.621 87.8501 263.807 88.3374C263.993 88.8213 264.085 89.4096 264.085 90.1023V90.6293H258.015V89.5156H262.629C262.629 89.1245 262.549 88.7782 262.39 88.4766C262.231 88.1716 262.007 87.9313 261.719 87.7557C261.434 87.58 261.099 87.4922 260.715 87.4922C260.297 87.4922 259.932 87.5949 259.621 87.8004C259.313 88.0026 259.074 88.2678 258.905 88.5959C258.739 88.9207 258.656 89.2737 258.656 89.6548V90.5249C258.656 91.0353 258.746 91.4695 258.925 91.8274C259.107 92.1854 259.361 92.4588 259.685 92.6477C260.01 92.8333 260.39 92.9261 260.824 92.9261C261.106 92.9261 261.363 92.8864 261.595 92.8068C261.827 92.724 262.027 92.6013 262.196 92.4389C262.365 92.2765 262.494 92.076 262.584 91.8374L263.991 92.0909C263.878 92.5052 263.676 92.8681 263.384 93.1797C263.096 93.4879 262.733 93.7282 262.296 93.9006C261.861 94.0696 261.366 94.1541 260.809 94.1541ZM268.593 94.1491C267.977 94.1491 267.427 93.9917 266.943 93.6768C266.462 93.3587 266.084 92.9062 265.809 92.3196C265.537 91.7296 265.402 91.022 265.402 90.1967C265.402 89.3714 265.539 88.6655 265.814 88.0788C266.093 87.4922 266.474 87.0431 266.958 86.7315C267.442 86.42 267.99 86.2642 268.603 86.2642C269.077 86.2642 269.458 86.3438 269.747 86.5028C270.038 86.6586 270.264 86.8409 270.423 87.0497C270.585 87.2585 270.711 87.4425 270.801 87.6016H270.89V83.8182H272.377V94H270.925V92.8118H270.801C270.711 92.9742 270.582 93.1598 270.413 93.3686C270.247 93.5774 270.018 93.7597 269.727 93.9155C269.435 94.0713 269.057 94.1491 268.593 94.1491ZM268.921 92.8814C269.349 92.8814 269.71 92.7687 270.005 92.5433C270.304 92.3146 270.529 91.9981 270.681 91.5938C270.837 91.1894 270.915 90.7187 270.915 90.1818C270.915 89.6515 270.839 89.1875 270.686 88.7898C270.534 88.392 270.31 88.0821 270.015 87.8601C269.72 87.638 269.356 87.527 268.921 87.527C268.474 87.527 268.101 87.643 267.803 87.875C267.505 88.107 267.279 88.4235 267.127 88.8246C266.978 89.2256 266.903 89.678 266.903 90.1818C266.903 90.6922 266.979 91.1513 267.132 91.5589C267.284 91.9666 267.509 92.2898 267.808 92.5284C268.109 92.7637 268.481 92.8814 268.921 92.8814ZM278.323 94V83.8182H281.952C282.744 83.8182 283.4 83.9624 283.921 84.2507C284.441 84.5391 284.831 84.9335 285.089 85.4339C285.348 85.9311 285.477 86.4912 285.477 87.1143C285.477 87.7408 285.346 88.3042 285.084 88.8047C284.826 89.3018 284.434 89.6963 283.911 89.9879C283.39 90.2763 282.736 90.4205 281.947 90.4205H279.451V89.1179H281.808C282.308 89.1179 282.714 89.0317 283.026 88.8594C283.337 88.6837 283.566 88.4451 283.712 88.1435C283.858 87.8419 283.931 87.4988 283.931 87.1143C283.931 86.7299 283.858 86.3885 283.712 86.0902C283.566 85.7919 283.336 85.5582 283.021 85.3892C282.709 85.2202 282.298 85.1357 281.788 85.1357H279.859V94H278.323ZM288.645 83.8182V94H287.158V83.8182H288.645ZM292.867 94.169C292.383 94.169 291.946 94.0795 291.555 93.9006C291.164 93.7183 290.854 93.4548 290.625 93.1101C290.4 92.7654 290.287 92.3428 290.287 91.8423C290.287 91.4115 290.37 91.0568 290.535 90.7784C290.701 90.5 290.925 90.2796 291.207 90.1172C291.488 89.9548 291.803 89.8321 292.151 89.7493C292.499 89.6664 292.854 89.6035 293.215 89.5604C293.672 89.5073 294.044 89.4643 294.329 89.4311C294.614 89.3946 294.821 89.3366 294.95 89.2571C295.079 89.1776 295.144 89.0483 295.144 88.8693V88.8345C295.144 88.4003 295.021 88.0639 294.776 87.8253C294.534 87.5866 294.173 87.4673 293.692 87.4673C293.192 87.4673 292.797 87.5784 292.509 87.8004C292.224 88.0192 292.027 88.2628 291.918 88.5312L290.521 88.2131C290.686 87.7491 290.928 87.3745 291.246 87.0895C291.568 86.8011 291.937 86.5923 292.355 86.4631C292.773 86.3305 293.212 86.2642 293.672 86.2642C293.977 86.2642 294.301 86.3007 294.642 86.3736C294.987 86.4432 295.308 86.5724 295.606 86.7614C295.908 86.9503 296.155 87.2204 296.347 87.5717C296.539 87.9197 296.636 88.3722 296.636 88.929V94H295.184V92.956H295.124C295.028 93.1482 294.884 93.3371 294.692 93.5227C294.499 93.7083 294.253 93.8625 293.951 93.9851C293.649 94.1077 293.288 94.169 292.867 94.169ZM293.19 92.9759C293.601 92.9759 293.953 92.8946 294.244 92.7322C294.539 92.5698 294.763 92.3577 294.915 92.0959C295.071 91.8307 295.149 91.5473 295.149 91.2457V90.2614C295.096 90.3144 294.993 90.3641 294.841 90.4105C294.692 90.4536 294.521 90.4917 294.329 90.5249C294.137 90.5547 293.949 90.5829 293.767 90.6094C293.585 90.6326 293.432 90.6525 293.31 90.669C293.021 90.7055 292.758 90.7668 292.519 90.853C292.284 90.9392 292.095 91.0634 291.952 91.2259C291.813 91.3849 291.744 91.5971 291.744 91.8622C291.744 92.2301 291.879 92.5085 292.151 92.6974C292.423 92.883 292.769 92.9759 293.19 92.9759ZM300.102 89.4659V94H298.616V86.3636H300.042V87.6065H300.137C300.312 87.2022 300.588 86.8774 300.962 86.6321C301.34 86.3868 301.816 86.2642 302.389 86.2642C302.909 86.2642 303.365 86.3736 303.756 86.5923C304.147 86.8078 304.45 87.1293 304.666 87.5568C304.881 87.9844 304.989 88.513 304.989 89.1428V94H303.503V89.3217C303.503 88.7682 303.358 88.3357 303.07 88.0241C302.782 87.7093 302.386 87.5518 301.882 87.5518C301.537 87.5518 301.231 87.6264 300.962 87.7756C300.697 87.9247 300.486 88.1435 300.331 88.4318C300.178 88.7169 300.102 89.0616 300.102 89.4659Z" fill="white"/>
<rect x="11" y="72" width="170" height="34" rx="16" fill="#E3F4F4"/>
<path d="M64.0296 83.8182H66.4408L68.7625 88.2031H68.8619L71.1837 83.8182H73.5949L69.8811 90.4006V94H67.7433V90.4006L64.0296 83.8182ZM76.5816 94.1491C75.8093 94.1491 75.1415 93.9851 74.578 93.657C74.0179 93.3255 73.5854 92.8648 73.2805 92.2749C72.9755 91.6816 72.8231 90.9938 72.8231 90.2116C72.8231 89.4228 72.9755 88.7334 73.2805 88.1435C73.5854 87.5502 74.0179 87.0895 74.578 86.7614C75.1415 86.4299 75.8093 86.2642 76.5816 86.2642C77.3538 86.2642 78.02 86.4299 78.5802 86.7614C79.1436 87.0895 79.5778 87.5502 79.8827 88.1435C80.1876 88.7334 80.3401 89.4228 80.3401 90.2116C80.3401 90.9938 80.1876 91.6816 79.8827 92.2749C79.5778 92.8648 79.1436 93.3255 78.5802 93.657C78.02 93.9851 77.3538 94.1491 76.5816 94.1491ZM76.5915 92.5085C76.9429 92.5085 77.2362 92.4091 77.4715 92.2102C77.7068 92.008 77.8841 91.733 78.0035 91.3849C78.1261 91.0369 78.1874 90.6409 78.1874 90.1967C78.1874 89.7526 78.1261 89.3565 78.0035 89.0085C77.8841 88.6605 77.7068 88.3854 77.4715 88.1832C77.2362 87.9811 76.9429 87.88 76.5915 87.88C76.2369 87.88 75.9386 87.9811 75.6966 88.1832C75.458 88.3854 75.2774 88.6605 75.1547 89.0085C75.0354 89.3565 74.9758 89.7526 74.9758 90.1967C74.9758 90.6409 75.0354 91.0369 75.1547 91.3849C75.2774 91.733 75.458 92.008 75.6966 92.2102C75.9386 92.4091 76.2369 92.5085 76.5915 92.5085ZM86.6143 90.7486V86.3636H88.7322V94H86.6988V92.6129H86.6192C86.4469 93.0604 86.1602 93.42 85.7591 93.6918C85.3614 93.9635 84.8759 94.0994 84.3025 94.0994C83.7921 94.0994 83.343 93.9834 82.9552 93.7514C82.5674 93.5194 82.2641 93.1896 82.0454 92.7621C81.8299 92.3345 81.7206 91.8224 81.7172 91.2259V86.3636H83.8351V90.848C83.8385 91.2988 83.9594 91.6551 84.1981 91.9169C84.4367 92.1787 84.7565 92.3097 85.1576 92.3097C85.4128 92.3097 85.6514 92.2517 85.8735 92.1357C86.0956 92.0163 86.2745 91.8407 86.4104 91.6087C86.5496 91.3767 86.6176 91.09 86.6143 90.7486ZM90.4262 94V86.3636H92.4795V87.696H92.559C92.6982 87.2221 92.9319 86.8641 93.26 86.6222C93.5882 86.3769 93.966 86.2543 94.3936 86.2543C94.4996 86.2543 94.614 86.2609 94.7366 86.2741C94.8592 86.2874 94.9669 86.3056 95.0597 86.3288V88.2081C94.9603 88.1783 94.8228 88.1518 94.6471 88.1286C94.4714 88.1054 94.3107 88.0938 94.1649 88.0938C93.8533 88.0938 93.5749 88.1617 93.3296 88.2976C93.0877 88.4302 92.8954 88.6158 92.7529 88.8544C92.6137 89.093 92.5441 89.3681 92.5441 89.6797V94H90.4262ZM99.4347 94V83.8182H103.452C104.224 83.8182 104.882 83.9657 105.426 84.2607C105.969 84.5523 106.383 84.9583 106.668 85.4787C106.957 85.9957 107.101 86.5923 107.101 87.2685C107.101 87.9446 106.955 88.5412 106.663 89.0582C106.372 89.5753 105.949 89.978 105.396 90.2663C104.845 90.5547 104.179 90.6989 103.397 90.6989H100.837V88.9737H103.049C103.463 88.9737 103.805 88.9025 104.073 88.7599C104.345 88.6141 104.547 88.4136 104.68 88.1584C104.816 87.8999 104.884 87.6032 104.884 87.2685C104.884 86.9304 104.816 86.6354 104.68 86.3835C104.547 86.1283 104.345 85.9311 104.073 85.7919C103.801 85.6494 103.457 85.5781 103.039 85.5781H101.587V94H99.4347ZM110.577 83.8182V94H108.459V83.8182H110.577ZM114.451 94.1442C113.964 94.1442 113.53 94.0597 113.149 93.8906C112.768 93.7183 112.466 93.4647 112.244 93.13C112.025 92.7919 111.916 92.371 111.916 91.8672C111.916 91.4429 111.994 91.0866 112.15 90.7983C112.305 90.5099 112.517 90.2779 112.786 90.1023C113.054 89.9266 113.359 89.794 113.701 89.7045C114.045 89.6151 114.407 89.5521 114.785 89.5156C115.229 89.4692 115.587 89.4261 115.858 89.3864C116.13 89.3433 116.327 89.2803 116.45 89.1974C116.573 89.1146 116.634 88.992 116.634 88.8295V88.7997C116.634 88.4848 116.535 88.2412 116.336 88.0689C116.14 87.8965 115.862 87.8104 115.5 87.8104C115.119 87.8104 114.816 87.8949 114.591 88.0639C114.365 88.2296 114.216 88.4384 114.143 88.6903L112.184 88.5312C112.284 88.0672 112.479 87.6662 112.771 87.3281C113.063 86.9867 113.439 86.7249 113.9 86.5426C114.364 86.357 114.901 86.2642 115.51 86.2642C115.935 86.2642 116.341 86.3139 116.728 86.4134C117.12 86.5128 117.466 86.6669 117.767 86.8757C118.072 87.0845 118.313 87.353 118.488 87.6811C118.664 88.0059 118.752 88.3954 118.752 88.8494V94H116.743V92.9411H116.684C116.561 93.1797 116.397 93.3902 116.191 93.5724C115.986 93.7514 115.739 93.8923 115.451 93.995C115.162 94.0945 114.829 94.1442 114.451 94.1442ZM115.058 92.6825C115.37 92.6825 115.645 92.6212 115.883 92.4986C116.122 92.3726 116.309 92.2036 116.445 91.9915C116.581 91.7794 116.649 91.5391 116.649 91.2706V90.4602C116.583 90.5033 116.491 90.5431 116.375 90.5795C116.263 90.6127 116.135 90.6442 115.993 90.674C115.85 90.7005 115.708 90.7254 115.565 90.7486C115.423 90.7685 115.293 90.7867 115.177 90.8033C114.929 90.8397 114.712 90.8977 114.526 90.9773C114.34 91.0568 114.196 91.1645 114.093 91.3004C113.991 91.433 113.939 91.5987 113.939 91.7976C113.939 92.0859 114.044 92.3063 114.253 92.4588C114.465 92.608 114.733 92.6825 115.058 92.6825ZM122.513 89.5852V94H120.395V86.3636H122.413V87.7109H122.503C122.672 87.2668 122.955 86.9155 123.353 86.657C123.751 86.3951 124.233 86.2642 124.8 86.2642C125.33 86.2642 125.792 86.3802 126.187 86.6122C126.581 86.8442 126.888 87.1757 127.107 87.6065C127.325 88.0341 127.435 88.5445 127.435 89.1378V94H125.317V89.5156C125.32 89.0483 125.201 88.6837 124.959 88.4219C124.717 88.1567 124.384 88.0241 123.96 88.0241C123.675 88.0241 123.423 88.0855 123.204 88.2081C122.988 88.3307 122.819 88.5097 122.697 88.745C122.578 88.977 122.516 89.2571 122.513 89.5852Z" fill="#79B4B7"/>
<rect x="11.5" y="72.5" width="339" height="33" rx="15.5" stroke="white"/>
<g clip-path="url(#clip1_344_6325)">
<rect x="11" y="126" width="340" height="166" rx="10" fill="white"/>
<g filter="url(#filter0_d_344_6325)">
<circle cx="79" cy="232" r="40" fill="#F1B1EB"/>
<circle cx="79" cy="232" r="41" stroke="white" stroke-width="2"/>
</g>
<mask id="path-12-outside-1_344_6325" maskUnits="userSpaceOnUse" x="37" y="190" width="84" height="84" fill="black">
<rect fill="white" x="37" y="190" width="84" height="84"/>
<path d="M79 192C88.2542 192 97.2221 195.209 104.376 201.08C111.529 206.95 116.426 215.12 118.231 224.196C120.037 233.273 118.639 242.694 114.277 250.856C109.914 259.017 102.857 265.414 94.3073 268.955C85.7576 272.497 76.2443 272.964 67.3886 270.278C58.5329 267.591 50.8826 261.917 45.7412 254.223C40.5998 246.528 38.2855 237.289 39.1926 228.079C40.0997 218.87 44.172 210.259 50.7157 203.716L79 232L79 192Z"/>
</mask>
<path d="M79 192C88.2542 192 97.2221 195.209 104.376 201.08C111.529 206.95 116.426 215.12 118.231 224.196C120.037 233.273 118.639 242.694 114.277 250.856C109.914 259.017 102.857 265.414 94.3073 268.955C85.7576 272.497 76.2443 272.964 67.3886 270.278C58.5329 267.591 50.8826 261.917 45.7412 254.223C40.5998 246.528 38.2855 237.289 39.1926 228.079C40.0997 218.87 44.172 210.259 50.7157 203.716L79 232L79 192Z" fill="#9EA1D4"/>
<path d="M79 192C88.2542 192 97.2221 195.209 104.376 201.08C111.529 206.95 116.426 215.12 118.231 224.196C120.037 233.273 118.639 242.694 114.277 250.856C109.914 259.017 102.857 265.414 94.3073 268.955C85.7576 272.497 76.2443 272.964 67.3886 270.278C58.5329 267.591 50.8826 261.917 45.7412 254.223C40.5998 246.528 38.2855 237.289 39.1926 228.079C40.0997 218.87 44.172 210.259 50.7157 203.716L79 232L79 192Z" stroke="white" stroke-width="4" mask="url(#path-12-outside-1_344_6325)"/>
<mask id="path-13-outside-2_344_6325" maskUnits="userSpaceOnUse" x="37" y="190" width="84" height="84" fill="black">
<rect fill="white" x="37" y="190" width="84" height="84"/>
<path d="M79 192C87.2009 192 95.2037 194.521 101.924 199.221C108.645 203.921 113.758 210.573 116.572 218.276C119.386 225.979 119.764 234.361 117.655 242.286C115.546 250.211 111.052 257.297 104.782 262.583C98.5118 267.868 90.7684 271.099 82.6008 271.838C74.4331 272.576 66.2359 270.786 59.1196 266.71C52.0033 262.634 46.3118 256.469 42.816 249.05C39.3203 241.632 38.1892 233.318 39.5762 225.235L79 232L79 192Z"/>
</mask>
<path d="M79 192C87.2009 192 95.2037 194.521 101.924 199.221C108.645 203.921 113.758 210.573 116.572 218.276C119.386 225.979 119.764 234.361 117.655 242.286C115.546 250.211 111.052 257.297 104.782 262.583C98.5118 267.868 90.7684 271.099 82.6008 271.838C74.4331 272.576 66.2359 270.786 59.1196 266.71C52.0033 262.634 46.3118 256.469 42.816 249.05C39.3203 241.632 38.1892 233.318 39.5762 225.235L79 232L79 192Z" fill="#7BD3EA"/>
<path d="M79 192C87.2009 192 95.2037 194.521 101.924 199.221C108.645 203.921 113.758 210.573 116.572 218.276C119.386 225.979 119.764 234.361 117.655 242.286C115.546 250.211 111.052 257.297 104.782 262.583C98.5118 267.868 90.7684 271.099 82.6008 271.838C74.4331 272.576 66.2359 270.786 59.1196 266.71C52.0033 262.634 46.3118 256.469 42.816 249.05C39.3203 241.632 38.1892 233.318 39.5762 225.235L79 232L79 192Z" stroke="white" stroke-width="4" mask="url(#path-13-outside-2_344_6325)"/>
<mask id="path-14-outside-3_344_6325" maskUnits="userSpaceOnUse" x="42" y="190" width="79" height="84" fill="black">
<rect fill="white" x="42" y="190" width="79" height="84"/>
<path d="M79 192C85.9256 192 92.7326 193.798 98.7547 197.219C104.777 200.639 109.808 205.564 113.355 211.512C116.902 217.461 118.844 224.228 118.991 231.152C119.138 238.076 117.484 244.92 114.192 251.013C110.901 257.106 106.083 262.24 100.211 265.913C94.3397 269.585 87.615 271.67 80.6956 271.964C73.7762 272.258 66.8992 270.75 60.7375 267.588C54.5758 264.426 49.3407 259.718 45.5445 253.926L79 232L79 192Z"/>
</mask>
<path d="M79 192C85.9256 192 92.7326 193.798 98.7547 197.219C104.777 200.639 109.808 205.564 113.355 211.512C116.902 217.461 118.844 224.228 118.991 231.152C119.138 238.076 117.484 244.92 114.192 251.013C110.901 257.106 106.083 262.24 100.211 265.913C94.3397 269.585 87.615 271.67 80.6956 271.964C73.7762 272.258 66.8992 270.75 60.7375 267.588C54.5758 264.426 49.3407 259.718 45.5445 253.926L79 232L79 192Z" fill="#A5DD9B"/>
<path d="M79 192C85.9256 192 92.7326 193.798 98.7547 197.219C104.777 200.639 109.808 205.564 113.355 211.512C116.902 217.461 118.844 224.228 118.991 231.152C119.138 238.076 117.484 244.92 114.192 251.013C110.901 257.106 106.083 262.24 100.211 265.913C94.3397 269.585 87.615 271.67 80.6956 271.964C73.7762 272.258 66.8992 270.75 60.7375 267.588C54.5758 264.426 49.3407 259.718 45.5445 253.926L79 232L79 192Z" stroke="white" stroke-width="4" mask="url(#path-14-outside-3_344_6325)"/>
<mask id="path-15-outside-4_344_6325" maskUnits="userSpaceOnUse" x="70" y="190" width="51" height="84" fill="black">
<rect fill="white" x="70" y="190" width="51" height="84"/>
<path d="M79 192C84.5031 192 89.947 193.136 94.9912 195.336C100.035 197.536 104.571 200.753 108.315 204.786C112.059 208.819 114.931 213.581 116.75 218.775C118.57 223.969 119.298 229.482 118.89 234.97C118.481 240.457 116.945 245.802 114.376 250.669C111.808 255.536 108.263 259.821 103.963 263.255C99.6627 266.689 94.7004 269.199 89.386 270.628C84.0717 272.057 78.5196 272.374 73.0772 271.559L79 232L79 192Z"/>
</mask>
<path d="M79 192C84.5031 192 89.947 193.136 94.9912 195.336C100.035 197.536 104.571 200.753 108.315 204.786C112.059 208.819 114.931 213.581 116.75 218.775C118.57 223.969 119.298 229.482 118.89 234.97C118.481 240.457 116.945 245.802 114.376 250.669C111.808 255.536 108.263 259.821 103.963 263.255C99.6627 266.689 94.7004 269.199 89.386 270.628C84.0717 272.057 78.5196 272.374 73.0772 271.559L79 232L79 192Z" fill="#F1E98C"/>
<path d="M79 192C84.5031 192 89.947 193.136 94.9912 195.336C100.035 197.536 104.571 200.753 108.315 204.786C112.059 208.819 114.931 213.581 116.75 218.775C118.57 223.969 119.298 229.482 118.89 234.97C118.481 240.457 116.945 245.802 114.376 250.669C111.808 255.536 108.263 259.821 103.963 263.255C99.6627 266.689 94.7004 269.199 89.386 270.628C84.0717 272.057 78.5196 272.374 73.0772 271.559L79 232L79 192Z" stroke="white" stroke-width="4" mask="url(#path-15-outside-4_344_6325)"/>
<mask id="path-16-outside-5_344_6325" maskUnits="userSpaceOnUse" x="77" y="190" width="44" height="74" fill="black">
<rect fill="white" x="77" y="190" width="44" height="74"/>
<path d="M79 192C86.9113 192 94.6448 194.346 101.223 198.741C107.801 203.136 112.928 209.384 115.955 216.693C118.983 224.002 119.775 232.044 118.231 239.804C116.688 247.563 112.878 254.69 107.284 260.284L79 232L79 192Z"/>
</mask>
<path d="M79 192C86.9113 192 94.6448 194.346 101.223 198.741C107.801 203.136 112.928 209.384 115.955 216.693C118.983 224.002 119.775 232.044 118.231 239.804C116.688 247.563 112.878 254.69 107.284 260.284L79 232L79 192Z" fill="#FAAB78"/>
<path d="M79 192C86.9113 192 94.6448 194.346 101.223 198.741C107.801 203.136 112.928 209.384 115.955 216.693C118.983 224.002 119.775 232.044 118.231 239.804C116.688 247.563 112.878 254.69 107.284 260.284L79 232L79 192Z" stroke="white" stroke-width="4" mask="url(#path-16-outside-5_344_6325)"/>
<mask id="path-17-outside-6_344_6325" maskUnits="userSpaceOnUse" x="77" y="190" width="42" height="45" fill="black">
<rect fill="white" x="77" y="190" width="42" height="45"/>
<path d="M79 192C87.0412 192 94.8958 194.424 101.539 198.955C108.182 203.486 113.305 209.914 116.24 217.4L79 232L79 192Z"/>
</mask>
<path d="M79 192C87.0412 192 94.8958 194.424 101.539 198.955C108.182 203.486 113.305 209.914 116.24 217.4L79 232L79 192Z" fill="#FD8A8A"/>
<path d="M79 192C87.0412 192 94.8958 194.424 101.539 198.955C108.182 203.486 113.305 209.914 116.24 217.4L79 232L79 192Z" stroke="white" stroke-width="4" mask="url(#path-17-outside-6_344_6325)"/>
<circle cx="79" cy="232" r="24" fill="white" stroke="white" stroke-width="2"/>
<path d="M174.154 208H168V200.692L171.077 198L174.154 200.692V208Z" stroke="#5E5E5E" stroke-linecap="round" stroke-linejoin="round"/>
<path d="M174.154 208H178V202.615H174.154" stroke="#5E5E5E" stroke-linecap="round" stroke-linejoin="round"/>
<path d="M171.077 208V206.461" stroke="#5E5E5E" stroke-linecap="round" stroke-linejoin="round"/>
<path d="M169.923 204.154H172.231" stroke="#5E5E5E" stroke-linecap="round" stroke-linejoin="round"/>
<path d="M169.923 201.846H172.231" stroke="#5E5E5E" stroke-linecap="round" stroke-linejoin="round"/>
<circle cx="158" cy="203" r="5" fill="#FD8A8A"/>
<path d="M199.83 207V206.205L202.291 203.655C202.554 203.378 202.771 203.135 202.941 202.927C203.114 202.716 203.243 202.516 203.328 202.327C203.414 202.137 203.456 201.936 203.456 201.723C203.456 201.482 203.399 201.273 203.286 201.098C203.172 200.92 203.017 200.784 202.82 200.69C202.624 200.593 202.403 200.544 202.156 200.544C201.896 200.544 201.669 200.597 201.475 200.704C201.28 200.81 201.131 200.961 201.027 201.155C200.923 201.349 200.871 201.576 200.871 201.837H199.823C199.823 201.394 199.925 201.007 200.129 200.675C200.332 200.344 200.612 200.087 200.967 199.905C201.322 199.72 201.726 199.628 202.178 199.628C202.635 199.628 203.037 199.719 203.385 199.901C203.735 200.081 204.009 200.327 204.205 200.64C204.402 200.95 204.5 201.3 204.5 201.691C204.5 201.961 204.449 202.225 204.347 202.483C204.248 202.741 204.074 203.029 203.825 203.346C203.577 203.661 203.231 204.043 202.789 204.493L201.343 206.006V206.059H204.617V207H199.83ZM208.495 207.121C207.934 207.118 207.455 206.97 207.057 206.677C206.659 206.383 206.355 205.956 206.144 205.395C205.934 204.834 205.828 204.158 205.828 203.367C205.828 202.579 205.934 201.905 206.144 201.347C206.357 200.788 206.663 200.362 207.061 200.068C207.461 199.775 207.939 199.628 208.495 199.628C209.052 199.628 209.529 199.776 209.926 200.072C210.324 200.365 210.628 200.791 210.839 201.35C211.052 201.906 211.159 202.579 211.159 203.367C211.159 204.16 211.053 204.837 210.843 205.398C210.632 205.957 210.328 206.384 209.93 206.68C209.532 206.974 209.054 207.121 208.495 207.121ZM208.495 206.173C208.988 206.173 209.372 205.932 209.649 205.452C209.929 204.971 210.068 204.276 210.068 203.367C210.068 202.763 210.004 202.253 209.877 201.837C209.751 201.418 209.57 201.1 209.333 200.885C209.099 200.667 208.82 200.558 208.495 200.558C208.005 200.558 207.62 200.8 207.341 201.283C207.062 201.766 206.921 202.46 206.919 203.367C206.919 203.973 206.981 204.486 207.107 204.905C207.235 205.321 207.416 205.638 207.65 205.853C207.884 206.066 208.166 206.173 208.495 206.173ZM216.214 205.636V205.253C216.214 204.978 216.271 204.727 216.385 204.5C216.501 204.27 216.669 204.087 216.889 203.95C217.112 203.81 217.38 203.74 217.695 203.74C218.017 203.74 218.287 203.809 218.505 203.946C218.723 204.083 218.887 204.267 218.999 204.496C219.112 204.726 219.169 204.978 219.169 205.253V205.636C219.169 205.911 219.112 206.163 218.999 206.393C218.885 206.62 218.718 206.804 218.498 206.943C218.28 207.08 218.013 207.149 217.695 207.149C217.376 207.149 217.106 207.08 216.886 206.943C216.665 206.804 216.499 206.62 216.385 206.393C216.271 206.163 216.214 205.911 216.214 205.636ZM217.042 205.253V205.636C217.042 205.84 217.09 206.025 217.188 206.19C217.285 206.356 217.454 206.439 217.695 206.439C217.934 206.439 218.101 206.356 218.196 206.19C218.291 206.025 218.338 205.84 218.338 205.636V205.253C218.338 205.049 218.292 204.865 218.2 204.699C218.11 204.533 217.942 204.45 217.695 204.45C217.459 204.45 217.29 204.533 217.191 204.699C217.092 204.865 217.042 205.049 217.042 205.253ZM212.557 201.474V201.091C212.557 200.816 212.614 200.564 212.727 200.335C212.843 200.105 213.011 199.921 213.232 199.784C213.454 199.647 213.723 199.578 214.038 199.578C214.36 199.578 214.629 199.647 214.847 199.784C215.065 199.921 215.23 200.105 215.341 200.335C215.452 200.564 215.508 200.816 215.508 201.091V201.474C215.508 201.749 215.451 202.001 215.337 202.231C215.226 202.458 215.06 202.642 214.84 202.781C214.622 202.919 214.355 202.987 214.038 202.987C213.716 202.987 213.445 202.919 213.224 202.781C213.007 202.642 212.841 202.458 212.727 202.231C212.614 202.001 212.557 201.749 212.557 201.474ZM213.388 201.091V201.474C213.388 201.678 213.435 201.863 213.53 202.028C213.627 202.194 213.796 202.277 214.038 202.277C214.274 202.277 214.44 202.194 214.535 202.028C214.632 201.863 214.68 201.678 214.68 201.474V201.091C214.68 200.887 214.634 200.703 214.542 200.537C214.45 200.371 214.281 200.288 214.038 200.288C213.801 200.288 213.633 200.371 213.533 200.537C213.436 200.703 213.388 200.887 213.388 201.091ZM212.894 207L217.894 199.727H218.743L213.743 207H212.894Z" fill="#5E5E5E"/>
<circle cx="158" cy="223" r="5" fill="#7BD3EA"/>
<path d="M203.996 219.727V227H202.895V220.828H202.852L201.112 221.964V220.913L202.927 219.727H203.996ZM208.495 227.121C207.934 227.118 207.455 226.97 207.057 226.677C206.659 226.383 206.355 225.956 206.144 225.395C205.934 224.834 205.828 224.158 205.828 223.367C205.828 222.579 205.934 221.905 206.144 221.347C206.357 220.788 206.663 220.362 207.061 220.068C207.461 219.775 207.939 219.628 208.495 219.628C209.052 219.628 209.529 219.776 209.926 220.072C210.324 220.365 210.628 220.791 210.839 221.35C211.052 221.906 211.159 222.579 211.159 223.367C211.159 224.16 211.053 224.837 210.843 225.398C210.632 225.957 210.328 226.384 209.93 226.68C209.532 226.974 209.054 227.121 208.495 227.121ZM208.495 226.173C208.988 226.173 209.372 225.932 209.649 225.452C209.929 224.971 210.068 224.276 210.068 223.367C210.068 222.763 210.004 222.253 209.877 221.837C209.751 221.418 209.57 221.1 209.333 220.885C209.099 220.667 208.82 220.558 208.495 220.558C208.005 220.558 207.62 220.8 207.341 221.283C207.062 221.766 206.921 222.46 206.919 223.367C206.919 223.973 206.981 224.486 207.107 224.905C207.235 225.321 207.416 225.638 207.65 225.853C207.884 226.066 208.166 226.173 208.495 226.173ZM216.214 225.636V225.253C216.214 224.978 216.271 224.727 216.385 224.5C216.501 224.27 216.669 224.087 216.889 223.95C217.112 223.81 217.38 223.74 217.695 223.74C218.017 223.74 218.287 223.809 218.505 223.946C218.723 224.083 218.887 224.267 218.999 224.496C219.112 224.726 219.169 224.978 219.169 225.253V225.636C219.169 225.911 219.112 226.163 218.999 226.393C218.885 226.62 218.718 226.804 218.498 226.943C218.28 227.08 218.013 227.149 217.695 227.149C217.376 227.149 217.106 227.08 216.886 226.943C216.665 226.804 216.499 226.62 216.385 226.393C216.271 226.163 216.214 225.911 216.214 225.636ZM217.042 225.253V225.636C217.042 225.84 217.09 226.025 217.188 226.19C217.285 226.356 217.454 226.439 217.695 226.439C217.934 226.439 218.101 226.356 218.196 226.19C218.291 226.025 218.338 225.84 218.338 225.636V225.253C218.338 225.049 218.292 224.865 218.2 224.699C218.11 224.533 217.942 224.45 217.695 224.45C217.459 224.45 217.29 224.533 217.191 224.699C217.092 224.865 217.042 225.049 217.042 225.253ZM212.557 221.474V221.091C212.557 220.816 212.614 220.564 212.727 220.335C212.843 220.105 213.011 219.921 213.232 219.784C213.454 219.647 213.723 219.578 214.038 219.578C214.36 219.578 214.629 219.647 214.847 219.784C215.065 219.921 215.23 220.105 215.341 220.335C215.452 220.564 215.508 220.816 215.508 221.091V221.474C215.508 221.749 215.451 222.001 215.337 222.231C215.226 222.458 215.06 222.642 214.84 222.781C214.622 222.919 214.355 222.987 214.038 222.987C213.716 222.987 213.445 222.919 213.224 222.781C213.007 222.642 212.841 222.458 212.727 222.231C212.614 222.001 212.557 221.749 212.557 221.474ZM213.388 221.091V221.474C213.388 221.678 213.435 221.863 213.53 222.028C213.627 222.194 213.796 222.277 214.038 222.277C214.274 222.277 214.44 222.194 214.535 222.028C214.632 221.863 214.68 221.678 214.68 221.474V221.091C214.68 220.887 214.634 220.703 214.542 220.537C214.45 220.371 214.281 220.288 214.038 220.288C213.801 220.288 213.633 220.371 213.533 220.537C213.436 220.703 213.388 220.887 213.388 221.091ZM212.894 227L217.894 219.727H218.743L213.743 227H212.894Z" fill="#5E5E5E"/>
<path d="M173.155 221.248C173.11 221.121 173.041 221.005 172.952 220.906C172.765 220.696 172.492 220.564 172.188 220.564H171.394C170.888 220.564 170.479 220.974 170.479 221.48C170.479 221.91 170.778 222.282 171.198 222.374L172.407 222.639C172.878 222.742 173.214 223.159 173.214 223.641C173.214 224.207 172.754 224.667 172.188 224.667H171.504C171.058 224.667 170.678 224.381 170.537 223.983" stroke="#5E5E5E" stroke-linecap="round" stroke-linejoin="round"/>
<path d="M171.846 220.564V219.539" stroke="#5E5E5E" stroke-linecap="round" stroke-linejoin="round"/>
<path d="M171.846 225.692V224.667" stroke="#5E5E5E" stroke-linecap="round" stroke-linejoin="round"/>
<path d="M176.846 218H169.538C169.13 218 168.739 218.162 168.451 218.451C168.162 218.739 168 219.13 168 219.538V228L169.923 226.846L171.846 228L173.769 226.846L175.692 228V219.154C175.692 218.848 175.814 218.554 176.03 218.338C176.247 218.122 176.54 218 176.846 218ZM176.846 218C177.152 218 177.446 218.122 177.662 218.338C177.878 218.554 178 218.848 178 219.154V221.846H175.692" stroke="#5E5E5E" stroke-linecap="round" stroke-linejoin="round"/>
<circle cx="158" cy="243" r="5" fill="#9EA1D4"/>
<path d="M199.83 247V246.205L202.291 243.655C202.554 243.378 202.771 243.135 202.941 242.927C203.114 242.716 203.243 242.516 203.328 242.327C203.414 242.137 203.456 241.936 203.456 241.723C203.456 241.482 203.399 241.273 203.286 241.098C203.172 240.92 203.017 240.784 202.82 240.69C202.624 240.593 202.403 240.544 202.156 240.544C201.896 240.544 201.669 240.597 201.475 240.704C201.28 240.81 201.131 240.961 201.027 241.155C200.923 241.349 200.871 241.576 200.871 241.837H199.823C199.823 241.394 199.925 241.007 200.129 240.675C200.332 240.344 200.612 240.087 200.967 239.905C201.322 239.72 201.726 239.628 202.178 239.628C202.635 239.628 203.037 239.719 203.385 239.901C203.735 240.081 204.009 240.327 204.205 240.64C204.402 240.95 204.5 241.3 204.5 241.691C204.5 241.961 204.449 242.225 204.347 242.483C204.248 242.741 204.074 243.029 203.825 243.346C203.577 243.661 203.231 244.043 202.789 244.493L201.343 246.006V246.059H204.617V247H199.83ZM208.495 247.121C207.934 247.118 207.455 246.97 207.057 246.677C206.659 246.383 206.355 245.956 206.144 245.395C205.934 244.834 205.828 244.158 205.828 243.367C205.828 242.579 205.934 241.905 206.144 241.347C206.357 240.788 206.663 240.362 207.061 240.068C207.461 239.775 207.939 239.628 208.495 239.628C209.052 239.628 209.529 239.776 209.926 240.072C210.324 240.365 210.628 240.791 210.839 241.35C211.052 241.906 211.159 242.579 211.159 243.367C211.159 244.16 211.053 244.837 210.843 245.398C210.632 245.957 210.328 246.384 209.93 246.68C209.532 246.974 209.054 247.121 208.495 247.121ZM208.495 246.173C208.988 246.173 209.372 245.932 209.649 245.452C209.929 244.971 210.068 244.276 210.068 243.367C210.068 242.763 210.004 242.253 209.877 241.837C209.751 241.418 209.57 241.1 209.333 240.885C209.099 240.667 208.82 240.558 208.495 240.558C208.005 240.558 207.62 240.8 207.341 241.283C207.062 241.766 206.921 242.46 206.919 243.367C206.919 243.973 206.981 244.486 207.107 244.905C207.235 245.321 207.416 245.638 207.65 245.853C207.884 246.066 208.166 246.173 208.495 246.173ZM216.214 245.636V245.253C216.214 244.978 216.271 244.727 216.385 244.5C216.501 244.27 216.669 244.087 216.889 243.95C217.112 243.81 217.38 243.74 217.695 243.74C218.017 243.74 218.287 243.809 218.505 243.946C218.723 244.083 218.887 244.267 218.999 244.496C219.112 244.726 219.169 244.978 219.169 245.253V245.636C219.169 245.911 219.112 246.163 218.999 246.393C218.885 246.62 218.718 246.804 218.498 246.943C218.28 247.08 218.013 247.149 217.695 247.149C217.376 247.149 217.106 247.08 216.886 246.943C216.665 246.804 216.499 246.62 216.385 246.393C216.271 246.163 216.214 245.911 216.214 245.636ZM217.042 245.253V245.636C217.042 245.84 217.09 246.025 217.188 246.19C217.285 246.356 217.454 246.439 217.695 246.439C217.934 246.439 218.101 246.356 218.196 246.19C218.291 246.025 218.338 245.84 218.338 245.636V245.253C218.338 245.049 218.292 244.865 218.2 244.699C218.11 244.533 217.942 244.45 217.695 244.45C217.459 244.45 217.29 244.533 217.191 244.699C217.092 244.865 217.042 245.049 217.042 245.253ZM212.557 241.474V241.091C212.557 240.816 212.614 240.564 212.727 240.335C212.843 240.105 213.011 239.921 213.232 239.784C213.454 239.647 213.723 239.578 214.038 239.578C214.36 239.578 214.629 239.647 214.847 239.784C215.065 239.921 215.23 240.105 215.341 240.335C215.452 240.564 215.508 240.816 215.508 241.091V241.474C215.508 241.749 215.451 242.001 215.337 242.231C215.226 242.458 215.06 242.642 214.84 242.781C214.622 242.919 214.355 242.987 214.038 242.987C213.716 242.987 213.445 242.919 213.224 242.781C213.007 242.642 212.841 242.458 212.727 242.231C212.614 242.001 212.557 241.749 212.557 241.474ZM213.388 241.091V241.474C213.388 241.678 213.435 241.863 213.53 242.028C213.627 242.194 213.796 242.277 214.038 242.277C214.274 242.277 214.44 242.194 214.535 242.028C214.632 241.863 214.68 241.678 214.68 241.474V241.091C214.68 240.887 214.634 240.703 214.542 240.537C214.45 240.371 214.281 240.288 214.038 240.288C213.801 240.288 213.633 240.371 213.533 240.537C213.436 240.703 213.388 240.887 213.388 241.091ZM212.894 247L217.894 239.727H218.743L213.743 247H212.894Z" fill="#5E5E5E"/>
<path d="M175.692 238H168.769C168.344 238 168 238.344 168 238.769V246.077C168 246.502 168.344 246.846 168.769 246.846H175.692C176.117 246.846 176.462 246.502 176.462 246.077V238.769C176.462 238.344 176.117 238 175.692 238Z" stroke="#5E5E5E" stroke-linecap="round" stroke-linejoin="round"/>
<path d="M169.538 246.846V248" stroke="#5E5E5E" stroke-linecap="round" stroke-linejoin="round"/>
<path d="M174.923 246.846V248" stroke="#5E5E5E" stroke-linecap="round" stroke-linejoin="round"/>
<path d="M168 243H176.462" stroke="#5E5E5E" stroke-linecap="round" stroke-linejoin="round"/>
<path d="M169.923 245.115C169.817 245.115 169.731 245.029 169.731 244.923C169.731 244.817 169.817 244.731 169.923 244.731" stroke="#5E5E5E" stroke-linecap="round" stroke-linejoin="round"/>
<path d="M169.923 245.115C170.029 245.115 170.115 245.029 170.115 244.923C170.115 244.817 170.029 244.731 169.923 244.731" stroke="#5E5E5E" stroke-linecap="round" stroke-linejoin="round"/>
<path d="M174.538 245.115C174.432 245.115 174.346 245.029 174.346 244.923C174.346 244.817 174.432 244.731 174.538 244.731" stroke="#5E5E5E" stroke-linecap="round" stroke-linejoin="round"/>
<path d="M174.539 245.115C174.645 245.115 174.731 245.029 174.731 244.923C174.731 244.817 174.645 244.731 174.539 244.731" stroke="#5E5E5E" stroke-linecap="round" stroke-linejoin="round"/>
<circle cx="158" cy="263" r="5" fill="#F1B1EB"/>
<path d="M199.83 267V266.205L202.291 263.655C202.554 263.378 202.771 263.135 202.941 262.927C203.114 262.716 203.243 262.516 203.328 262.327C203.414 262.137 203.456 261.936 203.456 261.723C203.456 261.482 203.399 261.273 203.286 261.098C203.172 260.92 203.017 260.784 202.82 260.69C202.624 260.593 202.403 260.544 202.156 260.544C201.896 260.544 201.669 260.597 201.475 260.704C201.28 260.81 201.131 260.961 201.027 261.155C200.923 261.349 200.871 261.576 200.871 261.837H199.823C199.823 261.394 199.925 261.007 200.129 260.675C200.332 260.344 200.612 260.087 200.967 259.905C201.322 259.72 201.726 259.628 202.178 259.628C202.635 259.628 203.037 259.719 203.385 259.901C203.735 260.081 204.009 260.327 204.205 260.64C204.402 260.95 204.5 261.3 204.5 261.691C204.5 261.961 204.449 262.225 204.347 262.483C204.248 262.741 204.074 263.029 203.825 263.346C203.577 263.661 203.231 264.043 202.789 264.493L201.343 266.006V266.059H204.617V267H199.83ZM208.495 267.121C207.934 267.118 207.455 266.97 207.057 266.677C206.659 266.383 206.355 265.956 206.144 265.395C205.934 264.834 205.828 264.158 205.828 263.367C205.828 262.579 205.934 261.905 206.144 261.347C206.357 260.788 206.663 260.362 207.061 260.068C207.461 259.775 207.939 259.628 208.495 259.628C209.052 259.628 209.529 259.776 209.926 260.072C210.324 260.365 210.628 260.791 210.839 261.35C211.052 261.906 211.159 262.579 211.159 263.367C211.159 264.16 211.053 264.837 210.843 265.398C210.632 265.957 210.328 266.384 209.93 266.68C209.532 266.974 209.054 267.121 208.495 267.121ZM208.495 266.173C208.988 266.173 209.372 265.932 209.649 265.452C209.929 264.971 210.068 264.276 210.068 263.367C210.068 262.763 210.004 262.253 209.877 261.837C209.751 261.418 209.57 261.1 209.333 260.885C209.099 260.667 208.82 260.558 208.495 260.558C208.005 260.558 207.62 260.8 207.341 261.283C207.062 261.766 206.921 262.46 206.919 263.367C206.919 263.973 206.981 264.486 207.107 264.905C207.235 265.321 207.416 265.638 207.65 265.853C207.884 266.066 208.166 266.173 208.495 266.173ZM216.214 265.636V265.253C216.214 264.978 216.271 264.727 216.385 264.5C216.501 264.27 216.669 264.087 216.889 263.95C217.112 263.81 217.38 263.74 217.695 263.74C218.017 263.74 218.287 263.809 218.505 263.946C218.723 264.083 218.887 264.267 218.999 264.496C219.112 264.726 219.169 264.978 219.169 265.253V265.636C219.169 265.911 219.112 266.163 218.999 266.393C218.885 266.62 218.718 266.804 218.498 266.943C218.28 267.08 218.013 267.149 217.695 267.149C217.376 267.149 217.106 267.08 216.886 266.943C216.665 266.804 216.499 266.62 216.385 266.393C216.271 266.163 216.214 265.911 216.214 265.636ZM217.042 265.253V265.636C217.042 265.84 217.09 266.025 217.188 266.19C217.285 266.356 217.454 266.439 217.695 266.439C217.934 266.439 218.101 266.356 218.196 266.19C218.291 266.025 218.338 265.84 218.338 265.636V265.253C218.338 265.049 218.292 264.865 218.2 264.699C218.11 264.533 217.942 264.45 217.695 264.45C217.459 264.45 217.29 264.533 217.191 264.699C217.092 264.865 217.042 265.049 217.042 265.253ZM212.557 261.474V261.091C212.557 260.816 212.614 260.564 212.727 260.335C212.843 260.105 213.011 259.921 213.232 259.784C213.454 259.647 213.723 259.578 214.038 259.578C214.36 259.578 214.629 259.647 214.847 259.784C215.065 259.921 215.23 260.105 215.341 260.335C215.452 260.564 215.508 260.816 215.508 261.091V261.474C215.508 261.749 215.451 262.001 215.337 262.231C215.226 262.458 215.06 262.642 214.84 262.781C214.622 262.919 214.355 262.987 214.038 262.987C213.716 262.987 213.445 262.919 213.224 262.781C213.007 262.642 212.841 262.458 212.727 262.231C212.614 262.001 212.557 261.749 212.557 261.474ZM213.388 261.091V261.474C213.388 261.678 213.435 261.863 213.53 262.028C213.627 262.194 213.796 262.277 214.038 262.277C214.274 262.277 214.44 262.194 214.535 262.028C214.632 261.863 214.68 261.678 214.68 261.474V261.091C214.68 260.887 214.634 260.703 214.542 260.537C214.45 260.371 214.281 260.288 214.038 260.288C213.801 260.288 213.633 260.371 213.533 260.537C213.436 260.703 213.388 260.887 213.388 261.091ZM212.894 267L217.894 259.727H218.743L213.743 267H212.894Z" fill="#5E5E5E"/>
<path d="M168 258.794C168 258.356 168.356 258 168.794 258H177.206C177.644 258 178 258.356 178 258.794V267.206C178 267.645 177.644 268 177.206 268H168.794C168.356 268 168 267.645 168 267.206V258.794Z" stroke="#5E5E5E" stroke-linecap="round" stroke-linejoin="round"/>
<path d="M172.367 260.357C172.148 260.357 171.97 260.535 171.97 260.754V261.871H170.854C170.634 261.871 170.457 262.049 170.457 262.268V263.558C170.457 263.778 170.634 263.955 170.854 263.955H171.97V265.072C171.97 265.291 172.148 265.469 172.367 265.469H173.658C173.877 265.469 174.055 265.291 174.055 265.072V263.955H175.171C175.39 263.955 175.568 263.778 175.568 263.558V262.268C175.568 262.049 175.39 261.871 175.171 261.871H174.055V260.754C174.055 260.535 173.877 260.357 173.658 260.357H172.367Z" stroke="#5E5E5E" stroke-linecap="round" stroke-linejoin="round"/>
<circle cx="261" cy="201" r="5" fill="#FAAB78"/>
<path d="M302.83 205V204.205L305.291 201.655C305.554 201.378 305.771 201.135 305.941 200.927C306.114 200.716 306.243 200.516 306.328 200.327C306.414 200.137 306.456 199.936 306.456 199.723C306.456 199.482 306.399 199.273 306.286 199.098C306.172 198.92 306.017 198.784 305.82 198.69C305.624 198.593 305.403 198.544 305.156 198.544C304.896 198.544 304.669 198.597 304.475 198.704C304.28 198.81 304.131 198.961 304.027 199.155C303.923 199.349 303.871 199.576 303.871 199.837H302.823C302.823 199.394 302.925 199.007 303.129 198.675C303.332 198.344 303.612 198.087 303.967 197.905C304.322 197.72 304.726 197.628 305.178 197.628C305.635 197.628 306.037 197.719 306.385 197.901C306.735 198.081 307.009 198.327 307.205 198.64C307.402 198.95 307.5 199.3 307.5 199.691C307.5 199.961 307.449 200.225 307.347 200.483C307.248 200.741 307.074 201.029 306.825 201.346C306.577 201.661 306.231 202.043 305.789 202.493L304.343 204.006V204.059H307.617V205H302.83ZM311.495 205.121C310.934 205.118 310.455 204.97 310.057 204.677C309.659 204.383 309.355 203.956 309.144 203.395C308.934 202.834 308.828 202.158 308.828 201.367C308.828 200.579 308.934 199.905 309.144 199.347C309.357 198.788 309.663 198.362 310.061 198.068C310.461 197.775 310.939 197.628 311.495 197.628C312.052 197.628 312.529 197.776 312.926 198.072C313.324 198.365 313.628 198.791 313.839 199.35C314.052 199.906 314.159 200.579 314.159 201.367C314.159 202.16 314.053 202.837 313.843 203.398C313.632 203.957 313.328 204.384 312.93 204.68C312.532 204.974 312.054 205.121 311.495 205.121ZM311.495 204.173C311.988 204.173 312.372 203.932 312.649 203.452C312.929 202.971 313.068 202.276 313.068 201.367C313.068 200.763 313.004 200.253 312.877 199.837C312.751 199.418 312.57 199.1 312.333 198.885C312.099 198.667 311.82 198.558 311.495 198.558C311.005 198.558 310.62 198.8 310.341 199.283C310.062 199.766 309.921 200.46 309.919 201.367C309.919 201.973 309.981 202.486 310.107 202.905C310.235 203.321 310.416 203.638 310.65 203.853C310.884 204.066 311.166 204.173 311.495 204.173ZM319.214 203.636V203.253C319.214 202.978 319.271 202.727 319.385 202.5C319.501 202.27 319.669 202.087 319.889 201.95C320.112 201.81 320.38 201.74 320.695 201.74C321.017 201.74 321.287 201.809 321.505 201.946C321.723 202.083 321.887 202.267 321.999 202.496C322.112 202.726 322.169 202.978 322.169 203.253V203.636C322.169 203.911 322.112 204.163 321.999 204.393C321.885 204.62 321.718 204.804 321.498 204.943C321.28 205.08 321.013 205.149 320.695 205.149C320.376 205.149 320.106 205.08 319.886 204.943C319.665 204.804 319.499 204.62 319.385 204.393C319.271 204.163 319.214 203.911 319.214 203.636ZM320.042 203.253V203.636C320.042 203.84 320.09 204.025 320.188 204.19C320.285 204.356 320.454 204.439 320.695 204.439C320.934 204.439 321.101 204.356 321.196 204.19C321.291 204.025 321.338 203.84 321.338 203.636V203.253C321.338 203.049 321.292 202.865 321.2 202.699C321.11 202.533 320.942 202.45 320.695 202.45C320.459 202.45 320.29 202.533 320.191 202.699C320.092 202.865 320.042 203.049 320.042 203.253ZM315.557 199.474V199.091C315.557 198.816 315.614 198.564 315.727 198.335C315.843 198.105 316.011 197.921 316.232 197.784C316.454 197.647 316.723 197.578 317.038 197.578C317.36 197.578 317.629 197.647 317.847 197.784C318.065 197.921 318.23 198.105 318.341 198.335C318.452 198.564 318.508 198.816 318.508 199.091V199.474C318.508 199.749 318.451 200.001 318.337 200.231C318.226 200.458 318.06 200.642 317.84 200.781C317.622 200.919 317.355 200.987 317.038 200.987C316.716 200.987 316.445 200.919 316.224 200.781C316.007 200.642 315.841 200.458 315.727 200.231C315.614 200.001 315.557 199.749 315.557 199.474ZM316.388 199.091V199.474C316.388 199.678 316.435 199.863 316.53 200.028C316.627 200.194 316.796 200.277 317.038 200.277C317.274 200.277 317.44 200.194 317.535 200.028C317.632 199.863 317.68 199.678 317.68 199.474V199.091C317.68 198.887 317.634 198.703 317.542 198.537C317.45 198.371 317.281 198.288 317.038 198.288C316.801 198.288 316.633 198.371 316.533 198.537C316.436 198.703 316.388 198.887 316.388 199.091ZM315.894 205L320.894 197.727H321.743L316.743 205H315.894Z" fill="#5E5E5E"/>
<path d="M280.05 205.146C280.063 205.254 280.052 205.363 280.019 205.467C279.985 205.57 279.931 205.666 279.858 205.746C279.785 205.827 279.696 205.891 279.597 205.935C279.498 205.979 279.39 206.001 279.281 206H271.774C271.665 206.001 271.558 205.979 271.458 205.935C271.359 205.891 271.27 205.827 271.197 205.746C271.125 205.666 271.07 205.57 271.037 205.467C271.004 205.363 270.993 205.254 271.005 205.146L271.682 199.077H279.374L280.05 205.146Z" stroke="#5E5E5E" stroke-linecap="round" stroke-linejoin="round"/>
<path d="M273.605 199.077V197.923C273.605 197.413 273.808 196.924 274.168 196.563C274.529 196.203 275.018 196 275.528 196C276.038 196 276.527 196.203 276.888 196.563C277.248 196.924 277.451 197.413 277.451 197.923V199.077" stroke="#5E5E5E" stroke-linecap="round" stroke-linejoin="round"/>
<circle cx="261" cy="221" r="5" fill="#F1E98C"/>
<path d="M302.83 225V224.205L305.291 221.655C305.554 221.378 305.771 221.135 305.941 220.927C306.114 220.716 306.243 220.516 306.328 220.327C306.414 220.137 306.456 219.936 306.456 219.723C306.456 219.482 306.399 219.273 306.286 219.098C306.172 218.92 306.017 218.784 305.82 218.69C305.624 218.593 305.403 218.544 305.156 218.544C304.896 218.544 304.669 218.597 304.475 218.704C304.28 218.81 304.131 218.961 304.027 219.155C303.923 219.349 303.871 219.576 303.871 219.837H302.823C302.823 219.394 302.925 219.007 303.129 218.675C303.332 218.344 303.612 218.087 303.967 217.905C304.322 217.72 304.726 217.628 305.178 217.628C305.635 217.628 306.037 217.719 306.385 217.901C306.735 218.081 307.009 218.327 307.205 218.64C307.402 218.95 307.5 219.3 307.5 219.691C307.5 219.961 307.449 220.225 307.347 220.483C307.248 220.741 307.074 221.029 306.825 221.346C306.577 221.661 306.231 222.043 305.789 222.493L304.343 224.006V224.059H307.617V225H302.83ZM311.495 225.121C310.934 225.118 310.455 224.97 310.057 224.677C309.659 224.383 309.355 223.956 309.144 223.395C308.934 222.834 308.828 222.158 308.828 221.367C308.828 220.579 308.934 219.905 309.144 219.347C309.357 218.788 309.663 218.362 310.061 218.068C310.461 217.775 310.939 217.628 311.495 217.628C312.052 217.628 312.529 217.776 312.926 218.072C313.324 218.365 313.628 218.791 313.839 219.35C314.052 219.906 314.159 220.579 314.159 221.367C314.159 222.16 314.053 222.837 313.843 223.398C313.632 223.957 313.328 224.384 312.93 224.68C312.532 224.974 312.054 225.121 311.495 225.121ZM311.495 224.173C311.988 224.173 312.372 223.932 312.649 223.452C312.929 222.971 313.068 222.276 313.068 221.367C313.068 220.763 313.004 220.253 312.877 219.837C312.751 219.418 312.57 219.1 312.333 218.885C312.099 218.667 311.82 218.558 311.495 218.558C311.005 218.558 310.62 218.8 310.341 219.283C310.062 219.766 309.921 220.46 309.919 221.367C309.919 221.973 309.981 222.486 310.107 222.905C310.235 223.321 310.416 223.638 310.65 223.853C310.884 224.066 311.166 224.173 311.495 224.173ZM319.214 223.636V223.253C319.214 222.978 319.271 222.727 319.385 222.5C319.501 222.27 319.669 222.087 319.889 221.95C320.112 221.81 320.38 221.74 320.695 221.74C321.017 221.74 321.287 221.809 321.505 221.946C321.723 222.083 321.887 222.267 321.999 222.496C322.112 222.726 322.169 222.978 322.169 223.253V223.636C322.169 223.911 322.112 224.163 321.999 224.393C321.885 224.62 321.718 224.804 321.498 224.943C321.28 225.08 321.013 225.149 320.695 225.149C320.376 225.149 320.106 225.08 319.886 224.943C319.665 224.804 319.499 224.62 319.385 224.393C319.271 224.163 319.214 223.911 319.214 223.636ZM320.042 223.253V223.636C320.042 223.84 320.09 224.025 320.188 224.19C320.285 224.356 320.454 224.439 320.695 224.439C320.934 224.439 321.101 224.356 321.196 224.19C321.291 224.025 321.338 223.84 321.338 223.636V223.253C321.338 223.049 321.292 222.865 321.2 222.699C321.11 222.533 320.942 222.45 320.695 222.45C320.459 222.45 320.29 222.533 320.191 222.699C320.092 222.865 320.042 223.049 320.042 223.253ZM315.557 219.474V219.091C315.557 218.816 315.614 218.564 315.727 218.335C315.843 218.105 316.011 217.921 316.232 217.784C316.454 217.647 316.723 217.578 317.038 217.578C317.36 217.578 317.629 217.647 317.847 217.784C318.065 217.921 318.23 218.105 318.341 218.335C318.452 218.564 318.508 218.816 318.508 219.091V219.474C318.508 219.749 318.451 220.001 318.337 220.231C318.226 220.458 318.06 220.642 317.84 220.781C317.622 220.919 317.355 220.987 317.038 220.987C316.716 220.987 316.445 220.919 316.224 220.781C316.007 220.642 315.841 220.458 315.727 220.231C315.614 220.001 315.557 219.749 315.557 219.474ZM316.388 219.091V219.474C316.388 219.678 316.435 219.863 316.53 220.028C316.627 220.194 316.796 220.277 317.038 220.277C317.274 220.277 317.44 220.194 317.535 220.028C317.632 219.863 317.68 219.678 317.68 219.474V219.091C317.68 218.887 317.634 218.703 317.542 218.537C317.45 218.371 317.281 218.288 317.038 218.288C316.801 218.288 316.633 218.371 316.533 218.537C316.436 218.703 316.388 218.887 316.388 219.091ZM315.894 225L320.894 217.727H321.743L316.743 225H315.894Z" fill="#5E5E5E"/>
<path d="M276.909 217.364C278.476 217.364 279.979 217.986 281.087 219.094C282.196 220.202 282.818 221.705 282.818 223.273C282.818 223.514 282.722 223.745 282.552 223.915C282.381 224.086 282.15 224.182 281.909 224.182H271.909C271.668 224.182 271.437 224.086 271.266 223.915C271.096 223.745 271 223.514 271 223.273C271 221.705 271.623 220.202 272.731 219.094C273.839 217.986 275.342 217.364 276.909 217.364Z" stroke="#5E5E5E" stroke-linecap="round" stroke-linejoin="round"/>
<path d="M276.909 217.364V216" stroke="#5E5E5E" stroke-linecap="round" stroke-linejoin="round"/>
<path d="M271 226H282.818" stroke="#5E5E5E" stroke-linecap="round" stroke-linejoin="round"/>
<circle cx="261" cy="241" r="5" fill="#8CE993"/>
<path d="M302.83 245V244.205L305.291 241.655C305.554 241.378 305.771 241.135 305.941 240.927C306.114 240.716 306.243 240.516 306.328 240.327C306.414 240.137 306.456 239.936 306.456 239.723C306.456 239.482 306.399 239.273 306.286 239.098C306.172 238.92 306.017 238.784 305.82 238.69C305.624 238.593 305.403 238.544 305.156 238.544C304.896 238.544 304.669 238.597 304.475 238.704C304.28 238.81 304.131 238.961 304.027 239.155C303.923 239.349 303.871 239.576 303.871 239.837H302.823C302.823 239.394 302.925 239.007 303.129 238.675C303.332 238.344 303.612 238.087 303.967 237.905C304.322 237.72 304.726 237.628 305.178 237.628C305.635 237.628 306.037 237.719 306.385 237.901C306.735 238.081 307.009 238.327 307.205 238.64C307.402 238.95 307.5 239.3 307.5 239.691C307.5 239.961 307.449 240.225 307.347 240.483C307.248 240.741 307.074 241.029 306.825 241.346C306.577 241.661 306.231 242.043 305.789 242.493L304.343 244.006V244.059H307.617V245H302.83ZM311.495 245.121C310.934 245.118 310.455 244.97 310.057 244.677C309.659 244.383 309.355 243.956 309.144 243.395C308.934 242.834 308.828 242.158 308.828 241.367C308.828 240.579 308.934 239.905 309.144 239.347C309.357 238.788 309.663 238.362 310.061 238.068C310.461 237.775 310.939 237.628 311.495 237.628C312.052 237.628 312.529 237.776 312.926 238.072C313.324 238.365 313.628 238.791 313.839 239.35C314.052 239.906 314.159 240.579 314.159 241.367C314.159 242.16 314.053 242.837 313.843 243.398C313.632 243.957 313.328 244.384 312.93 244.68C312.532 244.974 312.054 245.121 311.495 245.121ZM311.495 244.173C311.988 244.173 312.372 243.932 312.649 243.452C312.929 242.971 313.068 242.276 313.068 241.367C313.068 240.763 313.004 240.253 312.877 239.837C312.751 239.418 312.57 239.1 312.333 238.885C312.099 238.667 311.82 238.558 311.495 238.558C311.005 238.558 310.62 238.8 310.341 239.283C310.062 239.766 309.921 240.46 309.919 241.367C309.919 241.973 309.981 242.486 310.107 242.905C310.235 243.321 310.416 243.638 310.65 243.853C310.884 244.066 311.166 244.173 311.495 244.173ZM319.214 243.636V243.253C319.214 242.978 319.271 242.727 319.385 242.5C319.501 242.27 319.669 242.087 319.889 241.95C320.112 241.81 320.38 241.74 320.695 241.74C321.017 241.74 321.287 241.809 321.505 241.946C321.723 242.083 321.887 242.267 321.999 242.496C322.112 242.726 322.169 242.978 322.169 243.253V243.636C322.169 243.911 322.112 244.163 321.999 244.393C321.885 244.62 321.718 244.804 321.498 244.943C321.28 245.08 321.013 245.149 320.695 245.149C320.376 245.149 320.106 245.08 319.886 244.943C319.665 244.804 319.499 244.62 319.385 244.393C319.271 244.163 319.214 243.911 319.214 243.636ZM320.042 243.253V243.636C320.042 243.84 320.09 244.025 320.188 244.19C320.285 244.356 320.454 244.439 320.695 244.439C320.934 244.439 321.101 244.356 321.196 244.19C321.291 244.025 321.338 243.84 321.338 243.636V243.253C321.338 243.049 321.292 242.865 321.2 242.699C321.11 242.533 320.942 242.45 320.695 242.45C320.459 242.45 320.29 242.533 320.191 242.699C320.092 242.865 320.042 243.049 320.042 243.253ZM315.557 239.474V239.091C315.557 238.816 315.614 238.564 315.727 238.335C315.843 238.105 316.011 237.921 316.232 237.784C316.454 237.647 316.723 237.578 317.038 237.578C317.36 237.578 317.629 237.647 317.847 237.784C318.065 237.921 318.23 238.105 318.341 238.335C318.452 238.564 318.508 238.816 318.508 239.091V239.474C318.508 239.749 318.451 240.001 318.337 240.231C318.226 240.458 318.06 240.642 317.84 240.781C317.622 240.919 317.355 240.987 317.038 240.987C316.716 240.987 316.445 240.919 316.224 240.781C316.007 240.642 315.841 240.458 315.727 240.231C315.614 240.001 315.557 239.749 315.557 239.474ZM316.388 239.091V239.474C316.388 239.678 316.435 239.863 316.53 240.028C316.627 240.194 316.796 240.277 317.038 240.277C317.274 240.277 317.44 240.194 317.535 240.028C317.632 239.863 317.68 239.678 317.68 239.474V239.091C317.68 238.887 317.634 238.703 317.542 238.537C317.45 238.371 317.281 238.288 317.038 238.288C316.801 238.288 316.633 238.371 316.533 238.537C316.436 238.703 316.388 238.887 316.388 239.091ZM315.894 245L320.894 237.727H321.743L316.743 245H315.894Z" fill="#5E5E5E"/>
<path d="M272.558 246C273.418 246 274.116 245.302 274.116 244.442C274.116 243.582 273.418 242.884 272.558 242.884C271.698 242.884 271 243.582 271 244.442C271 245.302 271.698 246 272.558 246Z" stroke="#5E5E5E" stroke-linecap="round" stroke-linejoin="round"/>
<path d="M279.569 244.052C280.429 244.052 281.127 243.355 281.127 242.495C281.127 241.634 280.429 240.937 279.569 240.937C278.708 240.937 278.011 241.634 278.011 242.495C278.011 243.355 278.708 244.052 279.569 244.052Z" stroke="#5E5E5E" stroke-linecap="round" stroke-linejoin="round"/>
<path d="M281.127 242.495V236.387C281.127 236.328 281.113 236.269 281.086 236.216C281.059 236.162 281.021 236.116 280.973 236.08C280.926 236.044 280.871 236.019 280.812 236.007C280.754 235.996 280.694 235.998 280.636 236.013L274.404 237.743C274.322 237.765 274.249 237.814 274.197 237.881C274.145 237.949 274.116 238.031 274.116 238.117V244.442" stroke="#5E5E5E" stroke-linecap="round" stroke-linejoin="round"/>
<path d="M274.116 240.158L281.127 238.21" stroke="#5E5E5E" stroke-linecap="round" stroke-linejoin="round"/>
<path d="M30.5064 162V146.727H36.2337C37.407 146.727 38.3913 146.946 39.1868 147.384C39.9872 147.821 40.5913 148.423 40.9989 149.188C41.4116 149.949 41.6179 150.814 41.6179 151.783C41.6179 152.763 41.4116 153.633 40.9989 154.393C40.5863 155.154 39.9773 155.753 39.1719 156.191C38.3665 156.623 37.3746 156.839 36.1964 156.839H32.4006V154.565H35.8235C36.5096 154.565 37.0714 154.446 37.5089 154.207C37.9464 153.968 38.2695 153.64 38.4783 153.223C38.6921 152.805 38.799 152.325 38.799 151.783C38.799 151.241 38.6921 150.764 38.4783 150.352C38.2695 149.939 37.9439 149.618 37.5014 149.39C37.0639 149.156 36.4996 149.039 35.8086 149.039H33.2731V162H30.5064ZM46.6013 146.727V162H43.9017V146.727H46.6013ZM52.6735 162.231C51.9476 162.231 51.2939 162.102 50.7122 161.843C50.1355 161.58 49.6781 161.192 49.34 160.68C49.0069 160.168 48.8404 159.537 48.8404 158.786C48.8404 158.14 48.9597 157.605 49.1983 157.183C49.437 156.76 49.7626 156.422 50.1752 156.168C50.5879 155.915 51.0527 155.723 51.5698 155.594C52.0918 155.46 52.6312 155.363 53.188 155.303C53.8592 155.234 54.4036 155.172 54.8212 155.117C55.2388 155.057 55.5421 154.968 55.731 154.848C55.9249 154.724 56.0218 154.533 56.0218 154.274V154.229C56.0218 153.668 55.8553 153.233 55.5222 152.924C55.1891 152.616 54.7093 152.462 54.0829 152.462C53.4217 152.462 52.8972 152.606 52.5094 152.895C52.1266 153.183 51.8681 153.523 51.7338 153.916L49.2132 153.558C49.4121 152.862 49.7402 152.281 50.1976 151.813C50.655 151.341 51.2143 150.988 51.8755 150.754C52.5368 150.516 53.2676 150.396 54.068 150.396C54.6199 150.396 55.1692 150.461 55.7161 150.59C56.263 150.719 56.7626 150.933 57.215 151.232C57.6674 151.525 58.0304 151.925 58.3038 152.432C58.5822 152.939 58.7214 153.573 58.7214 154.334V162H56.1262V160.426H56.0368C55.8727 160.745 55.6415 161.043 55.3432 161.321C55.0499 161.595 54.6795 161.816 54.2321 161.985C53.7896 162.149 53.2701 162.231 52.6735 162.231ZM53.3745 160.248C53.9164 160.248 54.3862 160.141 54.7839 159.927C55.1816 159.708 55.4874 159.42 55.7012 159.062C55.9199 158.704 56.0293 158.314 56.0293 157.891V156.541C55.9448 156.611 55.8006 156.675 55.5968 156.735C55.3979 156.795 55.1742 156.847 54.9256 156.892C54.677 156.936 54.4309 156.976 54.1873 157.011C53.9437 157.046 53.7324 157.076 53.5534 157.1C53.1507 157.155 52.7903 157.245 52.4721 157.369C52.1539 157.493 51.9029 157.667 51.7189 157.891C51.535 158.11 51.443 158.393 51.443 158.741C51.443 159.238 51.6245 159.614 51.9874 159.867C52.3503 160.121 52.8127 160.248 53.3745 160.248ZM64.1355 155.288V162H61.4359V150.545H64.0162V152.492H64.1504C64.4139 151.85 64.834 151.341 65.4107 150.963C65.9924 150.585 66.7108 150.396 67.5659 150.396C68.3564 150.396 69.0449 150.565 69.6316 150.903C70.2232 151.241 70.6806 151.731 71.0037 152.373C71.3319 153.014 71.4934 153.792 71.4885 154.707V162H68.7889V155.124C68.7889 154.359 68.59 153.76 68.1923 153.327C67.7995 152.895 67.2551 152.678 66.5591 152.678C66.0868 152.678 65.6667 152.783 65.2988 152.991C64.9359 153.195 64.65 153.491 64.4412 153.879C64.2374 154.267 64.1355 154.737 64.1355 155.288ZM85.6239 146.727V162H82.8572V149.419H82.7678L79.1957 151.701V149.166L82.9915 146.727H85.6239Z" fill="#5E5E5E"/>
<path d="M317 149.923H333" stroke="#5E5E5E" stroke-width="1.5" stroke-linecap="round" stroke-linejoin="round"/>
<path d="M319 149.923H331V161.692C331 162.039 330.859 162.372 330.609 162.617C330.359 162.862 330.02 163 329.667 163H320.333C319.98 163 319.641 162.862 319.391 162.617C319.14 162.372 319 162.039 319 161.692V149.923Z" stroke="#5E5E5E" stroke-width="1.5" stroke-linecap="round" stroke-linejoin="round"/>
<path d="M321.667 149.923V149.269C321.667 148.402 322.018 147.571 322.643 146.958C323.268 146.344 324.116 146 325 146C325.884 146 326.732 146.344 327.357 146.958C327.982 147.571 328.333 148.402 328.333 149.269V149.923" stroke="#5E5E5E" stroke-width="1.5" stroke-linecap="round" stroke-linejoin="round"/>
<path d="M323 153.848V159.081" stroke="#5E5E5E" stroke-width="1.5" stroke-linecap="round" stroke-linejoin="round"/>
<path d="M327 153.848V159.081" stroke="#5E5E5E" stroke-width="1.5" stroke-linecap="round" stroke-linejoin="round"/>
<path d="M263.551 163V159.295C263.551 157.437 262.045 155.93 260.186 155.93H257.264V150.47C257.264 149.602 256.56 148.898 255.692 148.898C254.824 148.898 254.12 149.602 254.12 150.47L254.12 157.628L253.596 157.726C252.002 158.026 251.243 159.867 252.163 161.203L252.374 161.51L253.399 163" stroke="#79B4B7" stroke-width="1.5" stroke-linecap="round" stroke-linejoin="round"/>
<path d="M251.123 151.796C251.042 151.451 251 151.092 251 150.722C251 148.114 253.114 146 255.722 146C258.33 146 260.444 148.114 260.444 150.722C260.444 151.092 260.402 151.451 260.321 151.796" stroke="#79B4B7" stroke-width="1.5" stroke-linecap="round" stroke-linejoin="round"/>
<path d="M284.942 157.442C286.567 157.442 287.885 156.125 287.885 154.5C287.885 152.875 286.567 151.558 284.942 151.558C283.317 151.558 282 152.875 282 154.5C282 156.125 283.317 157.442 284.942 157.442Z" stroke="#5E5E5E" stroke-width="1.5" stroke-linecap="round" stroke-linejoin="round"/>
<path d="M296.058 163C297.683 163 299 161.683 299 160.058C299 158.433 297.683 157.115 296.058 157.115C294.433 157.115 293.115 158.433 293.115 160.058C293.115 161.683 294.433 163 296.058 163Z" stroke="#5E5E5E" stroke-width="1.5" stroke-linecap="round" stroke-linejoin="round"/>
<path d="M296.058 151.885C297.683 151.885 299 150.567 299 148.942C299 147.317 297.683 146 296.058 146C294.433 146 293.115 147.317 293.115 148.942C293.115 150.567 294.433 151.885 296.058 151.885Z" stroke="#5E5E5E" stroke-width="1.5" stroke-linecap="round" stroke-linejoin="round"/>
<path d="M287.571 153.192L293.429 150.25" stroke="#5E5E5E" stroke-width="1.5" stroke-linecap="round" stroke-linejoin="round"/>
<path d="M287.571 155.808L293.429 158.75" stroke="#5E5E5E" stroke-width="1.5" stroke-linecap="round" stroke-linejoin="round"/>
<line x1="29" y1="176.5" x2="333" y2="176.5" stroke="black"/>
</g>
<rect x="126" y="367" width="110" height="34" rx="16" fill="#79B4B7"/>
<path d="M158.987 378.818V389H157.575L152.4 381.533H152.305V389H150.769V378.818H152.191L157.371 386.295H157.466V378.818H158.987ZM164.4 389.154C163.647 389.154 163 388.993 162.456 388.672C161.916 388.347 161.498 387.891 161.203 387.305C160.911 386.715 160.766 386.024 160.766 385.232C160.766 384.449 160.911 383.76 161.203 383.163C161.498 382.567 161.909 382.101 162.436 381.766C162.966 381.432 163.586 381.264 164.295 381.264C164.726 381.264 165.144 381.335 165.548 381.478C165.953 381.621 166.316 381.844 166.637 382.149C166.959 382.454 167.212 382.85 167.398 383.337C167.583 383.821 167.676 384.41 167.676 385.102V385.629H161.606V384.516H166.219C166.219 384.125 166.14 383.778 165.981 383.477C165.822 383.172 165.598 382.931 165.31 382.756C165.025 382.58 164.69 382.492 164.305 382.492C163.888 382.492 163.523 382.595 163.212 382.8C162.903 383.003 162.665 383.268 162.496 383.596C162.33 383.921 162.247 384.274 162.247 384.655V385.525C162.247 386.035 162.337 386.469 162.516 386.827C162.698 387.185 162.951 387.459 163.276 387.648C163.601 387.833 163.981 387.926 164.415 387.926C164.696 387.926 164.953 387.886 165.185 387.807C165.417 387.724 165.618 387.601 165.787 387.439C165.956 387.277 166.085 387.076 166.175 386.837L167.582 387.091C167.469 387.505 167.267 387.868 166.975 388.18C166.687 388.488 166.324 388.728 165.886 388.901C165.452 389.07 164.957 389.154 164.4 389.154ZM170.967 389L168.72 381.364H170.256L171.753 386.972H171.827L173.329 381.364H174.865L176.357 386.947H176.431L177.918 381.364H179.454L177.212 389H175.695L174.144 383.487H174.03L172.479 389H170.967ZM184.689 389V378.818H188.318C189.11 378.818 189.767 378.962 190.287 379.251C190.807 379.539 191.197 379.933 191.455 380.434C191.714 380.931 191.843 381.491 191.843 382.114C191.843 382.741 191.712 383.304 191.45 383.805C191.192 384.302 190.801 384.696 190.277 384.988C189.757 385.276 189.102 385.42 188.313 385.42H185.817V384.118H188.174C188.674 384.118 189.08 384.032 189.392 383.859C189.704 383.684 189.932 383.445 190.078 383.143C190.224 382.842 190.297 382.499 190.297 382.114C190.297 381.73 190.224 381.388 190.078 381.09C189.932 380.792 189.702 380.558 189.387 380.389C189.076 380.22 188.665 380.136 188.154 380.136H186.225V389H184.689ZM195.011 378.818V389H193.525V378.818H195.011ZM199.233 389.169C198.749 389.169 198.312 389.08 197.921 388.901C197.53 388.718 197.22 388.455 196.991 388.11C196.766 387.765 196.653 387.343 196.653 386.842C196.653 386.411 196.736 386.057 196.902 385.778C197.067 385.5 197.291 385.28 197.573 385.117C197.855 384.955 198.169 384.832 198.517 384.749C198.865 384.666 199.22 384.603 199.581 384.56C200.039 384.507 200.41 384.464 200.695 384.431C200.98 384.395 201.187 384.337 201.316 384.257C201.446 384.178 201.51 384.048 201.51 383.869V383.835C201.51 383.4 201.388 383.064 201.142 382.825C200.9 382.587 200.539 382.467 200.059 382.467C199.558 382.467 199.164 382.578 198.875 382.8C198.59 383.019 198.393 383.263 198.284 383.531L196.887 383.213C197.052 382.749 197.294 382.375 197.613 382.089C197.934 381.801 198.304 381.592 198.721 381.463C199.139 381.33 199.578 381.264 200.039 381.264C200.344 381.264 200.667 381.301 201.008 381.374C201.353 381.443 201.674 381.572 201.973 381.761C202.274 381.95 202.521 382.22 202.713 382.572C202.906 382.92 203.002 383.372 203.002 383.929V389H201.55V387.956H201.49C201.394 388.148 201.25 388.337 201.058 388.523C200.866 388.708 200.619 388.862 200.317 388.985C200.016 389.108 199.654 389.169 199.233 389.169ZM199.556 387.976C199.967 387.976 200.319 387.895 200.61 387.732C200.905 387.57 201.129 387.358 201.282 387.096C201.437 386.831 201.515 386.547 201.515 386.246V385.261C201.462 385.314 201.359 385.364 201.207 385.411C201.058 385.454 200.887 385.492 200.695 385.525C200.503 385.555 200.315 385.583 200.133 385.609C199.951 385.633 199.798 385.652 199.676 385.669C199.387 385.705 199.124 385.767 198.885 385.853C198.65 385.939 198.461 386.063 198.319 386.226C198.179 386.385 198.11 386.597 198.11 386.862C198.11 387.23 198.246 387.509 198.517 387.697C198.789 387.883 199.136 387.976 199.556 387.976ZM206.468 384.466V389H204.982V381.364H206.409V382.607H206.503C206.679 382.202 206.954 381.877 207.328 381.632C207.706 381.387 208.182 381.264 208.755 381.264C209.276 381.264 209.731 381.374 210.122 381.592C210.513 381.808 210.817 382.129 211.032 382.557C211.248 382.984 211.355 383.513 211.355 384.143V389H209.869V384.322C209.869 383.768 209.725 383.336 209.436 383.024C209.148 382.709 208.752 382.552 208.248 382.552C207.903 382.552 207.597 382.626 207.328 382.776C207.063 382.925 206.853 383.143 206.697 383.432C206.544 383.717 206.468 384.062 206.468 384.466Z" fill="white"/>
</g>
<rect x="0.5" y="0.5" width="361" height="801" stroke="black"/>
<defs>
<filter id="filter0_d_344_6325" x="-13" y="144" width="184" height="184" filterUnits="userSpaceOnUse" color-interpolation-filters="sRGB">
<feFlood flood-opacity="0" result="BackgroundImageFix"/>
<feColorMatrix in="SourceAlpha" type="matrix" values="0 0 0 0 0 0 0 0 0 0 0 0 0 0 0 0 0 0 127 0" result="hardAlpha"/>
<feOffset dy="4"/>
<feGaussianBlur stdDeviation="25"/>
<feComposite in2="hardAlpha" operator="out"/>
<feColorMatrix type="matrix" values="0 0 0 0 0.952941 0 0 0 0 0.933333 0 0 0 0 0.917647 0 0 0 0.5 0"/>
<feBlend mode="normal" in2="BackgroundImageFix" result="effect1_dropShadow_344_6325"/>
<feBlend mode="normal" in="SourceGraphic" in2="effect1_dropShadow_344_6325" result="shape"/>
</filter>
<clipPath id="clip0_344_6325">
<rect x="1" y="1" width="360" height="800" fill="white"/>
</clipPath>
<clipPath id="clip1_344_6325">
<rect x="11" y="126" width="340" height="166" rx="10" fill="white"/>
</clipPath>
</defs>
</svg>
