<svg width="18" height="18" viewBox="0 0 18 18" fill="none" xmlns="http://www.w3.org/2000/svg">
<path d="M4.85127 4.8453C6.07311 4.05133 7.48889 3.46143 8.99999 3.46143C12.4338 3.46143 15.3754 6.50762 16.6677 8.07226C16.8718 8.32668 16.9848 8.65723 16.9848 8.99996C16.9848 9.34269 16.8718 9.67324 16.6677 9.92767C15.9553 10.7901 14.7418 12.1028 13.2211 13.1072M10.8461 14.2549C10.2524 14.4345 9.63462 14.5385 8.99999 14.5385C5.56614 14.5385 2.6246 11.4923 1.33229 9.92767C1.12818 9.67324 1.0152 9.34269 1.0152 8.99996C1.0152 8.65723 1.12818 8.32668 1.33229 8.07226C1.74173 7.57653 2.31673 6.93208 3.02048 6.28293" stroke="#9D9D9D" stroke-width="1.5" stroke-linecap="round" stroke-linejoin="round"/>
<path d="M10.7406 10.7407C11.7019 9.77939 11.7019 8.22083 10.7406 7.25953C9.7793 6.29825 8.22075 6.29825 7.25946 7.25953" stroke="#9D9D9D" stroke-width="1.5" stroke-linecap="round" stroke-linejoin="round"/>
<path d="M17 17L1 1" stroke="#9D9D9D" stroke-width="1.5" stroke-linecap="round" stroke-linejoin="round"/>
</svg>
