<svg width="42" height="42" viewBox="0 0 42 42" fill="none" xmlns="http://www.w3.org/2000/svg">
<circle cx="21" cy="21" r="21" fill="#7BD3EA"/>
<path d="M21.2795 17.8464C21.1985 17.6171 21.0734 17.4085 20.9145 17.231C20.5764 16.8533 20.0852 16.6156 19.5384 16.6156H18.1094C17.1993 16.6156 16.4615 17.3534 16.4615 18.2635C16.4615 19.038 17.0007 19.7079 17.7573 19.8734L19.9329 20.3493C20.7805 20.5347 21.3846 21.2858 21.3846 22.1534C21.3846 23.173 20.558 24.0002 19.5384 24.0002H18.3076C17.5038 24.0002 16.82 23.4865 16.5665 22.7694" stroke="white" stroke-width="1.5" stroke-linecap="round" stroke-linejoin="round"/>
<path d="M18.9231 16.6154V14.7692" stroke="white" stroke-width="1.5" stroke-linecap="round" stroke-linejoin="round"/>
<path d="M18.9231 25.8463V24.0001" stroke="white" stroke-width="1.5" stroke-linecap="round" stroke-linejoin="round"/>
<path d="M27.9231 12H14.7692C14.0348 12 13.3304 12.2918 12.8111 12.8111C12.2918 13.3304 12 14.0348 12 14.7692V30L15.4615 27.9231L18.9231 30L22.3846 27.9231L25.8462 30V14.0769C25.8462 13.5261 26.0649 12.9978 26.4544 12.6083C26.8439 12.2188 27.3723 12 27.9231 12ZM27.9231 12C28.4739 12 29.0022 12.2188 29.3917 12.6083C29.7812 12.9978 30 13.5261 30 14.0769V18.9231H25.8462" stroke="white" stroke-width="1.5" stroke-linecap="round" stroke-linejoin="round"/>
</svg>
