<svg width="18" height="18" viewBox="0 0 18 18" fill="none" xmlns="http://www.w3.org/2000/svg">
<path d="M2.23077 2.84619C1.90434 2.84619 1.5913 2.97587 1.36048 3.20667C1.12967 3.43749 1 3.75054 1 4.07696V15.7693C1 16.0957 1.12967 16.4088 1.36048 16.6395C1.5913 16.8703 1.90434 17 2.23077 17H15.7692C16.0956 17 16.4087 16.8703 16.6395 16.6395C16.8703 16.4088 17 16.0957 17 15.7693V4.07696C17 3.75054 16.8703 3.43749 16.6395 3.20667C16.4087 2.97587 16.0956 2.84619 15.7692 2.84619H13.3077" stroke="#9D9D9D" stroke-width="1.5" stroke-linecap="round" stroke-linejoin="round"/>
<path d="M1 7.15381H17" stroke="#9D9D9D" stroke-width="1.5" stroke-linecap="round" stroke-linejoin="round"/>
<path d="M4.69232 1V4.69231" stroke="#9D9D9D" stroke-width="1.5" stroke-linecap="round" stroke-linejoin="round"/>
<path d="M13.3077 1V4.69231" stroke="#9D9D9D" stroke-width="1.5" stroke-linecap="round" stroke-linejoin="round"/>
<path d="M4.69232 2.84619H10.8462" stroke="#9D9D9D" stroke-width="1.5" stroke-linecap="round" stroke-linejoin="round"/>
</svg>
