<svg width="42" height="42" viewBox="0 0 42 42" fill="none" xmlns="http://www.w3.org/2000/svg">
<circle cx="21" cy="21" r="21" fill="#8CE993"/>
<path d="M14.7692 29.7745C16.2986 29.7745 17.5385 28.5347 17.5385 27.0053C17.5385 25.476 16.2986 24.2361 14.7692 24.2361C13.2398 24.2361 12 25.476 12 27.0053C12 28.5347 13.2398 29.7745 14.7692 29.7745Z" stroke="white" stroke-width="1.5" stroke-linecap="round" stroke-linejoin="round"/>
<path d="M27.2308 26.313C28.7602 26.313 30 25.0732 30 23.5438C30 22.0144 28.7602 20.7745 27.2308 20.7745C25.7013 20.7745 24.4615 22.0144 24.4615 23.5438C24.4615 25.0732 25.7013 26.313 27.2308 26.313Z" stroke="white" stroke-width="1.5" stroke-linecap="round" stroke-linejoin="round"/>
<path d="M30 23.5438V12.6884C29.9994 12.5825 29.9745 12.4781 29.9272 12.3833C29.8799 12.2885 29.8115 12.2058 29.7272 12.1416C29.643 12.0774 29.5451 12.0334 29.4412 12.013C29.3372 11.9926 29.23 11.9963 29.1277 12.0238L18.0508 15.0977C17.9044 15.1371 17.775 15.2234 17.6824 15.3435C17.5899 15.4636 17.5393 15.6107 17.5385 15.7623V27.0054" stroke="white" stroke-width="1.5" stroke-linecap="round" stroke-linejoin="round"/>
<path d="M17.5385 19.3899L30 15.9283" stroke="white" stroke-width="1.5" stroke-linecap="round" stroke-linejoin="round"/>
</svg>
