<svg width="42" height="42" viewBox="0 0 42 42" fill="none" xmlns="http://www.w3.org/2000/svg">
<circle cx="21" cy="21" r="21" fill="#F1B1EB"/>
<path d="M12 13.4293C12 12.6399 12.6399 12 13.4293 12H28.5707C29.3601 12 30 12.6399 30 13.4293V28.5708C30 29.3602 29.3601 30.0001 28.5707 30.0001H13.4293C12.6399 30.0001 12 29.3602 12 28.5708V13.4293Z" stroke="white" stroke-width="1.5" stroke-linecap="round" stroke-linejoin="round"/>
<path d="M19.8611 16.2432C19.4664 16.2432 19.1465 16.5631 19.1465 16.9578V18.9678H17.1365C16.7418 18.9678 16.4219 19.2877 16.4219 19.6824V22.005C16.4219 22.3997 16.7418 22.7197 17.1365 22.7197H19.1465V24.7295C19.1465 25.1242 19.4664 25.4442 19.8611 25.4442H22.1837C22.5784 25.4442 22.8983 25.1242 22.8983 24.7295V22.7197H24.9083C25.3029 22.7197 25.623 22.3997 25.623 22.005V19.6824C25.623 19.2877 25.3029 18.9678 24.9083 18.9678H22.8983V16.9578C22.8983 16.5631 22.5784 16.2432 22.1837 16.2432H19.8611Z" stroke="white" stroke-width="1.5" stroke-linecap="round" stroke-linejoin="round"/>
</svg>
