<svg width="42" height="42" viewBox="0 0 42 42" fill="none" xmlns="http://www.w3.org/2000/svg">
<circle cx="21" cy="21" r="20.25" fill="#F8F0DF" stroke="#5E5E5E" stroke-width="1.5"/>
<path d="M13.6154 22.2308C13.2755 22.2308 13 21.9552 13 21.6154C13 21.2755 13.2755 21 13.6154 21" stroke="#5E5E5E" stroke-width="3" stroke-linecap="round" stroke-linejoin="round"/>
<path d="M13.6154 22.2308C13.9552 22.2308 14.2307 21.9552 14.2307 21.6154C14.2307 21.2755 13.9552 21 13.6154 21" stroke="#5E5E5E" stroke-width="3" stroke-linecap="round" stroke-linejoin="round"/>
<path d="M21 22.2308C20.6602 22.2308 20.3846 21.9552 20.3846 21.6154C20.3846 21.2755 20.6602 21 21 21" stroke="#5E5E5E" stroke-width="3" stroke-linecap="round" stroke-linejoin="round"/>
<path d="M21 22.2308C21.3399 22.2308 21.6154 21.9552 21.6154 21.6154C21.6154 21.2755 21.3399 21 21 21" stroke="#5E5E5E" stroke-width="3" stroke-linecap="round" stroke-linejoin="round"/>
<path d="M28.3845 22.2308C28.0447 22.2308 27.7692 21.9552 27.7692 21.6154C27.7692 21.2755 28.0447 21 28.3845 21" stroke="#5E5E5E" stroke-width="3" stroke-linecap="round" stroke-linejoin="round"/>
<path d="M28.3846 22.2308C28.7245 22.2308 29 21.9552 29 21.6154C29 21.2755 28.7245 21 28.3846 21" stroke="#5E5E5E" stroke-width="3" stroke-linecap="round" stroke-linejoin="round"/>
</svg>
