<svg width="20" height="24" viewBox="0 0 20 24" fill="none" xmlns="http://www.w3.org/2000/svg">
<path d="M12.4231 1H7.34615C6.41152 1 5.65384 1.75767 5.65384 2.69231V3.53846C5.65384 4.47309 6.41152 5.23077 7.34615 5.23077H12.4231C13.3577 5.23077 14.1154 4.47309 14.1154 3.53846V2.69231C14.1154 1.75767 13.3577 1 12.4231 1Z" stroke="#9D9D9D" stroke-width="2" stroke-linecap="round" stroke-linejoin="round"/>
<path d="M14.1153 17.5386H5.65381" stroke="#9D9D9D" stroke-width="2" stroke-linecap="round" stroke-linejoin="round"/>
<path d="M14.1153 10.5386H5.65381" stroke="#9D9D9D" stroke-width="2" stroke-linecap="round" stroke-linejoin="round"/>
<path d="M14.5385 2.69238H17.0769C17.5257 2.69238 17.9562 2.87068 18.2736 3.18804C18.5909 3.50542 18.7692 3.93586 18.7692 4.38469V21.3078C18.7692 21.7566 18.5909 22.1871 18.2736 22.5044C17.9562 22.8217 17.5257 23.0001 17.0769 23.0001H2.69231C2.24347 23.0001 1.81304 22.8217 1.49566 22.5044C1.1783 22.1871 1 21.7566 1 21.3078V4.38469C1 3.93586 1.1783 3.50542 1.49566 3.18804C1.81304 2.87068 2.24347 2.69238 2.69231 2.69238H5.23077" stroke="#9D9D9D" stroke-width="2" stroke-linecap="round" stroke-linejoin="round"/>
</svg>
