<svg width="23" height="23" viewBox="0 0 23 23" fill="none" xmlns="http://www.w3.org/2000/svg">
<path d="M11.5 22C17.2991 22 22 17.2991 22 11.5C22 5.70101 17.2991 1 11.5 1C5.70101 1 1 5.70101 1 11.5C1 17.2991 5.70101 22 11.5 22Z" stroke="#9D9D9D" stroke-width="2" stroke-linecap="round" stroke-linejoin="round"/>
<path d="M1.80762 15.5382H4.63454C5.38429 15.5382 6.10333 15.2403 6.63348 14.7102C7.16364 14.18 7.46146 13.461 7.46146 12.7113V10.2882C7.46146 9.53844 7.75929 8.8194 8.28945 8.28924C8.8196 7.75909 9.53864 7.46126 10.2884 7.46126C11.0381 7.46126 11.7572 7.16342 12.2873 6.63326C12.8175 6.10311 13.1153 5.38409 13.1153 4.63434V1.11279" stroke="#9D9D9D" stroke-width="2" stroke-linecap="round" stroke-linejoin="round"/>
<path d="M22.0001 11.3384C21.1913 10.9188 20.2944 10.6973 19.3832 10.6923H15.9424C15.1927 10.6923 14.4736 10.9901 13.9435 11.5202C13.4133 12.0504 13.1155 12.7694 13.1155 13.5192C13.1155 14.2689 13.4133 14.988 13.9435 15.5181C14.4736 16.0483 15.1927 16.3461 15.9424 16.3461C16.4779 16.3461 16.9916 16.5589 17.3702 16.9375C17.7489 17.3161 17.9616 17.8298 17.9616 18.3653V19.7707" stroke="#9D9D9D" stroke-width="2" stroke-linecap="round" stroke-linejoin="round"/>
</svg>
