<svg width="42" height="42" viewBox="0 0 42 42" fill="none" xmlns="http://www.w3.org/2000/svg">
<circle cx="21" cy="21" r="21" fill="#E1CB8B"/>
<path d="M21 31.5C26.25 31.5 30 29.6428 30 25.5092C30 21.0161 27.75 18.0207 23.25 15.7742L25.02 13.4977C25.1099 13.3483 25.1587 13.1779 25.1614 13.0036C25.1641 12.8294 25.1206 12.6575 25.0353 12.5055C24.95 12.3534 24.826 12.2266 24.6758 12.1378C24.5256 12.049 24.3545 12.0015 24.18 12H17.82C17.6455 12.0015 17.4744 12.049 17.3242 12.1378C17.174 12.2266 17.05 12.3534 16.9647 12.5055C16.8794 12.6575 16.8359 12.8294 16.8386 13.0036C16.8413 13.1779 16.8901 13.3483 16.98 13.4977L18.75 15.7892C14.25 18.0507 12 21.0461 12 25.5392C12 29.6428 15.75 31.5 21 31.5Z" stroke="#5E5E5E" stroke-width="1.5" stroke-linecap="round" stroke-linejoin="round"/>
<path d="M23.0742 21.4586C23.0029 21.2567 22.8928 21.0732 22.7529 20.9169C22.4553 20.5845 22.0229 20.3752 21.5417 20.3752H20.2839C19.4827 20.3752 18.8333 21.0247 18.8333 21.8258C18.8333 22.5074 19.308 23.0971 19.9739 23.2428L21.8889 23.6617C22.6349 23.8249 23.1667 24.486 23.1667 25.2497C23.1667 26.1471 22.4391 26.8753 21.5417 26.8753H20.4583C19.7508 26.8753 19.1489 26.4231 18.9258 25.7919" stroke="#5E5E5E" stroke-width="1.5" stroke-linecap="round" stroke-linejoin="round"/>
<path d="M21 20.375V18.75" stroke="#5E5E5E" stroke-width="1.5" stroke-linecap="round" stroke-linejoin="round"/>
<path d="M21 28.5002V26.8751" stroke="#5E5E5E" stroke-width="1.5" stroke-linecap="round" stroke-linejoin="round"/>
</svg>
