<svg width="42" height="42" viewBox="0 0 42 42" fill="none" xmlns="http://www.w3.org/2000/svg">
<circle cx="21" cy="21" r="21" fill="#FAAB78"/>
<path d="M29.9904 29.1796C30.0146 29.3941 29.9929 29.6112 29.927 29.8168C29.8611 30.0223 29.7525 30.2116 29.6082 30.3722C29.4635 30.5324 29.2865 30.6604 29.0889 30.7472C28.8912 30.8342 28.6773 30.8784 28.4614 30.8767H13.5385C13.3226 30.8784 13.1088 30.8342 12.9111 30.7472C12.7135 30.6604 12.5365 30.5324 12.3918 30.3722C12.2475 30.2116 12.1388 30.0223 12.073 29.8168C12.0071 29.6112 11.9855 29.3941 12.0095 29.1796L13.3551 17.1158H28.6449L29.9904 29.1796Z" stroke="white" stroke-width="1.5" stroke-linecap="round" stroke-linejoin="round"/>
<path d="M17.1776 17.116V14.8225C17.1776 13.8087 17.5803 12.8364 18.2971 12.1196C19.014 11.4027 19.9862 11 21 11C22.0138 11 22.9861 11.4027 23.7029 12.1196C24.4198 12.8364 24.8225 13.8087 24.8225 14.8225V17.116" stroke="white" stroke-width="1.5" stroke-linecap="round" stroke-linejoin="round"/>
</svg>
