<svg width="42" height="42" viewBox="0 0 42 42" fill="none" xmlns="http://www.w3.org/2000/svg">
<circle cx="21" cy="21" r="21" fill="#9EA1D4"/>
<path d="M28.3636 11H13.6364C12.7326 11 12 11.7326 12 12.6364V28.1818C12 29.0856 12.7326 29.8182 13.6364 29.8182H28.3636C29.2674 29.8182 30 29.0856 30 28.1818V12.6364C30 11.7326 29.2674 11 28.3636 11Z" stroke="white" stroke-width="1.5" stroke-linecap="round" stroke-linejoin="round"/>
<path d="M15.2727 29.8182V32.2727" stroke="white" stroke-width="1.5" stroke-linecap="round" stroke-linejoin="round"/>
<path d="M26.7273 29.8182V32.2727" stroke="white" stroke-width="1.5" stroke-linecap="round" stroke-linejoin="round"/>
<path d="M12 21.6364H30" stroke="white" stroke-width="1.5" stroke-linecap="round" stroke-linejoin="round"/>
<path d="M16.0909 26.1364C15.865 26.1364 15.6818 25.9532 15.6818 25.7273C15.6818 25.5013 15.865 25.3182 16.0909 25.3182" stroke="white" stroke-width="1.5" stroke-linecap="round" stroke-linejoin="round"/>
<path d="M16.0909 26.1364C16.3168 26.1364 16.5 25.9533 16.5 25.7273C16.5 25.5014 16.3168 25.3182 16.0909 25.3182" stroke="white" stroke-width="1.5" stroke-linecap="round" stroke-linejoin="round"/>
<path d="M25.9091 26.1364C25.6832 26.1364 25.5 25.9532 25.5 25.7273C25.5 25.5013 25.6832 25.3182 25.9091 25.3182" stroke="white" stroke-width="1.5" stroke-linecap="round" stroke-linejoin="round"/>
<path d="M25.9091 26.1364C26.1351 26.1364 26.3182 25.9533 26.3182 25.7273C26.3182 25.5014 26.1351 25.3182 25.9091 25.3182" stroke="white" stroke-width="1.5" stroke-linecap="round" stroke-linejoin="round"/>
</svg>
