<svg width="23" height="23" viewBox="0 0 23 23" fill="none" xmlns="http://www.w3.org/2000/svg">
<path d="M11.4999 13.1154C13.7303 13.1154 15.5383 11.3073 15.5383 9.07691C15.5383 6.84654 13.7303 5.03845 11.4999 5.03845C9.26951 5.03845 7.46143 6.84654 7.46143 9.07691C7.46143 11.3073 9.26951 13.1154 11.4999 13.1154Z" stroke="#9D9D9D" stroke-width="2" stroke-linecap="round" stroke-linejoin="round"/>
<path d="M4.60229 19.4152C5.32314 18.2319 6.33626 17.2539 7.54425 16.5755C8.75223 15.8968 10.1145 15.5404 11.5 15.5404C12.8855 15.5404 14.2477 15.8968 15.4557 16.5755C16.6638 17.2539 17.6768 18.2319 18.3977 19.4152" stroke="#9D9D9D" stroke-width="2" stroke-linecap="round" stroke-linejoin="round"/>
<path d="M11.5 22C17.2991 22 22 17.2991 22 11.5C22 5.70101 17.2991 1 11.5 1C5.70101 1 1 5.70101 1 11.5C1 17.2991 5.70101 22 11.5 22Z" stroke="#9D9D9D" stroke-width="2" stroke-linecap="round" stroke-linejoin="round"/>
</svg>
