<svg width="45" height="45" viewBox="0 0 45 45" fill="none" xmlns="http://www.w3.org/2000/svg">
<rect x="0.5" y="0.5" width="44" height="44" rx="9.5" fill="white" stroke="#79B4B7"/>
<g clip-path="url(#clip0_99_2732)">
<path d="M32.792 29.7035C32.429 30.542 31.9994 31.3139 31.5016 32.0235C30.8231 32.9908 30.2676 33.6605 29.8395 34.0323C29.1758 34.6426 28.4647 34.9552 27.7032 34.973C27.1566 34.973 26.4973 34.8175 25.73 34.5019C24.9601 34.1878 24.2525 34.0323 23.6056 34.0323C22.9271 34.0323 22.1994 34.1878 21.4211 34.5019C20.6415 34.8175 20.0136 34.9819 19.5334 34.9982C18.8032 35.0293 18.0754 34.7078 17.3489 34.0323C16.8852 33.6279 16.3052 32.9345 15.6104 31.9524C14.865 30.9035 14.2521 29.6872 13.772 28.3006C13.2578 26.8029 13 25.3526 13 23.9484C13 22.3401 13.3475 20.9528 14.0437 19.7904C14.5908 18.8566 15.3186 18.12 16.2295 17.5793C17.1405 17.0386 18.1247 16.763 19.1847 16.7454C19.7647 16.7454 20.5252 16.9248 21.4704 17.2774C22.4129 17.6312 23.0181 17.8106 23.2834 17.8106C23.4817 17.8106 24.154 17.6008 25.2937 17.1826C26.3714 16.7947 27.281 16.6342 28.0262 16.6974C30.0454 16.8604 31.5624 17.6563 32.5712 19.0904C30.7654 20.1846 29.8721 21.7171 29.8898 23.6831C29.9061 25.2145 30.4617 26.4888 31.5535 27.5006C32.0483 27.9703 32.6009 28.3332 33.2156 28.591C33.0823 28.9776 32.9416 29.348 32.792 29.7035ZM28.161 11.4804C28.161 12.6807 27.7225 13.8013 26.8484 14.8386C25.7937 16.0718 24.5179 16.7844 23.1343 16.6719C23.1167 16.5279 23.1065 16.3764 23.1065 16.2171C23.1065 15.0649 23.6081 13.8317 24.4989 12.8235C24.9436 12.3129 25.5092 11.8885 26.1951 11.5499C26.8796 11.2163 27.5269 11.0318 28.1358 11.0002C28.1536 11.1607 28.161 11.3212 28.161 11.4804V11.4804Z" fill="#79B4B7"/>
</g>
<defs>
<clipPath id="clip0_99_2732">
<rect width="24" height="24" fill="white" transform="translate(11 11)"/>
</clipPath>
</defs>
</svg>
