<svg width="45" height="45" viewBox="0 0 45 45" fill="none" xmlns="http://www.w3.org/2000/svg">
<rect x="0.5" y="0.5" width="44" height="44" rx="9.5" fill="white" stroke="#79B4B7"/>
<g clip-path="url(#clip0_99_2729)">
<path d="M23 11C16.3726 11 11 16.3726 11 23C11 28.6275 14.8746 33.3498 20.1013 34.6467V26.6672H17.6269V23H20.1013V21.4198C20.1013 17.3355 21.9498 15.4424 25.9597 15.4424C26.72 15.4424 28.0318 15.5917 28.5685 15.7405V19.0645C28.2853 19.0347 27.7933 19.0198 27.1822 19.0198C25.2147 19.0198 24.4544 19.7653 24.4544 21.703V23H28.3741L27.7006 26.6672H24.4544V34.9122C30.3963 34.1946 35.0005 29.1354 35.0005 23C35 16.3726 29.6274 11 23 11Z" fill="#79B4B7"/>
</g>
<defs>
<clipPath id="clip0_99_2729">
<rect width="24" height="24" fill="white" transform="translate(11 11)"/>
</clipPath>
</defs>
</svg>
