<svg width="45" height="45" viewBox="0 0 45 45" fill="none" xmlns="http://www.w3.org/2000/svg">
<rect x="0.5" y="0.5" width="44" height="44" rx="9.5" fill="white" stroke="#79B4B7"/>
<g clip-path="url(#clip0_99_2726)">
<path d="M22.9998 20.8181V25.4654H29.4579C29.1743 26.9599 28.3233 28.2254 27.047 29.0763L30.9415 32.0982C33.2106 30.0037 34.5197 26.9273 34.5197 23.2728C34.5197 22.4219 34.4433 21.6036 34.3015 20.8182L22.9998 20.8181Z" fill="#79B4B7"/>
<path d="M16.2746 25.2839L15.3963 25.9563L12.2871 28.3781C14.2616 32.2944 18.3086 34.9999 22.9995 34.9999C26.2394 34.9999 28.9557 33.9308 30.9412 32.0981L27.0467 29.0763C25.9776 29.7963 24.614 30.2327 22.9995 30.2327C19.8795 30.2327 17.2287 28.1273 16.2795 25.2909L16.2746 25.2839Z" fill="#79B4B7"/>
<path d="M12.2872 17.6218C11.469 19.2363 11 21.0581 11 22.9999C11 24.9417 11.469 26.7636 12.2872 28.378C12.2872 28.3889 16.28 25.2799 16.28 25.2799C16.04 24.5599 15.8981 23.7963 15.8981 22.9998C15.8981 22.2033 16.04 21.4398 16.28 20.7198L12.2872 17.6218Z" fill="#79B4B7"/>
<path d="M22.9997 15.7782C24.767 15.7782 26.3379 16.3891 27.5925 17.5673L31.0288 14.1309C28.9452 12.1892 26.2398 11 22.9997 11C18.3089 11 14.2616 13.6945 12.2871 17.6218L16.2798 20.72C17.2288 17.8836 19.8798 15.7782 22.9997 15.7782Z" fill="#79B4B7"/>
</g>
<defs>
<clipPath id="clip0_99_2726">
<rect width="24" height="24" fill="white" transform="translate(11 11)"/>
</clipPath>
</defs>
</svg>
